<?xml version="1.0" encoding="UTF-8"?>
<svg version="1.1" xmlns="http://www.w3.org/2000/svg" width="1024" height="869">
<path d="M0 0 C2.92247058 0.00869265 5.84309315 -0.02068913 8.76538086 -0.05200195 C10.63321882 -0.05361001 12.50106023 -0.05304403 14.36889648 -0.05004883 C15.67182899 -0.0668998 15.67182899 -0.0668998 17.00108337 -0.08409119 C22.91351911 -0.01498263 22.91351911 -0.01498263 25.38525391 2.16894531 C26.48471984 4.55320914 27.46359268 6.88629804 28.30249023 9.37573242 C28.62862305 10.3300415 28.95475586 11.28435059 29.29077148 12.26757812 C29.6272168 13.27522217 29.96366211 14.28286621 30.31030273 15.32104492 C31.01548635 17.39544921 31.72121472 19.46966839 32.42749023 21.54370117 C32.76876953 22.55190918 33.11004883 23.56011719 33.46166992 24.59887695 C35.11166345 29.42390819 36.86718868 34.20931286 38.62280273 38.99682617 C39.43530273 41.44604492 39.43530273 41.44604492 39.43530273 43.44604492 C40.02375977 43.41631592 40.6122168 43.38658691 41.21850586 43.35595703 C48.14601738 43.16164548 54.25179728 44.26109523 60.93530273 46.00854492 C61.97468994 46.27376953 63.01407715 46.53899414 64.08496094 46.81225586 C73.51656875 49.30419735 82.46294861 52.64967262 91.43530273 56.44604492 C93.10046402 57.1164628 94.76641056 57.78496919 96.43530273 58.44604492 C97.39049805 57.61202148 98.34569336 56.77799805 99.32983398 55.91870117 C106.93090519 49.29710877 114.5765746 42.76155746 122.43530273 36.44604492 C123.21647461 35.68420898 123.99764648 34.92237305 124.80249023 34.13745117 C127.43530273 32.44604492 127.43530273 32.44604492 130.87670898 32.48120117 C134.60157281 33.49112583 137.14918548 34.77823904 140.37280273 36.88354492 C141.50412301 37.61170501 142.63564293 38.33955497 143.76733398 39.06713867 C144.35981934 39.45369629 144.95230469 39.84025391 145.56274414 40.23852539 C147.50811383 41.49299716 149.47309885 42.70970318 151.44702148 43.91870117 C172.63498949 56.91056267 172.63498949 56.91056267 179.43530273 64.44604492 C180.09530273 65.13698242 180.75530273 65.82791992 181.43530273 66.53979492 C188.70412804 74.32782203 188.70412804 74.32782203 189.43530273 79.44604492 C187.43530273 82.44604492 187.43530273 82.44604492 184.81030273 83.13354492 C184.02655273 83.23666992 183.24280273 83.33979492 182.43530273 83.44604492 C183.09530273 84.43604492 183.75530273 85.42604492 184.43530273 86.44604492 C184.63000993 88.39867995 184.74671982 90.35975666 184.81030273 92.32104492 C185.08115726 95.9470007 185.29825774 98.17195493 186.93530273 101.44604492 C193.68473621 106.8455917 201.57767359 108.82014355 210.09545898 108.73510742 C215.035763 108.12478606 218.99298234 105.40759185 223.06030273 102.69604492 C226.29406532 100.99406462 227.81601232 100.73638014 231.43530273 101.44604492 C235.75143494 104.3262985 239.12062726 107.74904468 241.87280273 112.13354492 C244.32554579 115.88333176 247.21869429 116.7906126 251.29858398 118.34838867 C254.31899131 119.9000056 255.51025612 122.01236185 257.25170898 124.84448242 C259.09386227 127.33716509 261.6677421 128.18259333 264.43530273 129.44604492 C268.83121205 134.43098428 270.50082087 141.21648945 270.93530273 147.75854492 C270.30610078 152.39890931 269.08016633 153.59354298 265.43530273 156.44604492 C264.36280273 157.02354492 263.29030273 157.60104492 262.18530273 158.19604492 C259.28968152 160.09220461 259.28968152 160.09220461 258.97436523 162.52026367 C258.86494214 164.09647725 258.7646867 165.67335391 258.67358398 167.25073242 C258.43530273 169.44604492 258.43530273 169.44604492 256.99780273 172.50854492 C253.07075833 175.47777362 249.19053591 174.85441418 244.43530273 174.44604492 C244.7356543 175.01452148 245.03600586 175.58299805 245.34545898 176.16870117 C247.1933061 179.9207704 248.39507994 182.86281445 248.68530273 187.07104492 C247.09875854 191.35471424 244.7488111 192.96008378 241.24780273 195.75463867 C239.16142538 197.42561192 239.16142538 197.42561192 238.43530273 200.57104492 C238.38877567 203.39825353 238.38877567 203.39825353 238.68530273 206.00854492 C238.43530273 208.44604492 238.43530273 208.44604492 236.56030273 211.13354492 C232.90019776 213.84202261 230.18326588 214.33763614 225.73999023 214.89135742 C223.0670208 215.53468227 222.13576417 216.32700836 220.43530273 218.44604492 C219.25955563 220.54594144 219.25955563 220.54594144 218.43530273 222.44604492 C215.39430524 222.89106895 213.22597607 222.89441456 210.51342773 221.35620117 C206.93426995 218.56830348 205.59389481 217.10155882 204.49780273 212.57104492 C204.46686523 211.02416992 204.46686523 211.02416992 204.43530273 209.44604492 C198.42595268 210.69326852 193.28372866 212.7586419 187.75561523 215.42260742 C185.43530273 216.44604492 185.43530273 216.44604492 183.43530273 216.44604492 C183.39791992 217.12151367 183.36053711 217.79698242 183.32202148 218.49291992 C183.2234082 219.8309668 183.2234082 219.8309668 183.12280273 221.19604492 C183.06479492 222.07776367 183.00678711 222.95948242 182.94702148 223.86791992 C182.32547668 226.99936701 181.86739561 228.34144178 179.43530273 230.44604492 C176.58217646 230.82784294 174.0394196 231.00610551 171.18530273 231.00854492 C165.14529245 231.04543853 160.8808551 231.73047185 155.43530273 234.44604492 C154.78354275 241.94128478 157.4404784 248.02634607 161.18530273 254.44604492 C163.23612346 259.36801467 163.55929471 264.61074985 161.56811523 269.63354492 C160.83989712 271.07935024 160.10798173 272.52329794 159.37280273 273.96557617 C158.21631419 277.02545211 158.11908099 279.68290191 157.99780273 282.94604492 C157.66510281 289.29691672 156.17292394 293.34404785 152.43530273 298.44604492 C151.88229492 299.20272461 151.32928711 299.9594043 150.75952148 300.73901367 C147.9691239 304.23474456 146.3703486 306.17403158 141.99780273 307.44604492 C141.15217773 307.44604492 140.30655273 307.44604492 139.43530273 307.44604492 C139.78463867 308.1240918 140.13397461 308.80213867 140.49389648 309.50073242 C144.40626435 317.50279928 146.58359984 324.61415684 144.43530273 333.44604492 C143.93522479 336.98818477 143.93522479 336.98818477 144.43530273 340.44604492 C147.30003881 343.95765689 149.90867813 344.68958558 154.24780273 345.19604492 C155.64253314 345.29615608 157.03830959 345.38517376 158.43530273 345.44604492 C158.83362305 344.60299805 159.23194336 343.75995117 159.64233398 342.89135742 C160.17213867 341.7956543 160.70194336 340.69995117 161.24780273 339.57104492 C161.76987305 338.48049805 162.29194336 337.38995117 162.82983398 336.26635742 C164.43530273 333.44604492 164.43530273 333.44604492 167.43530273 331.44604492 C170.06964527 331.76730621 172.0624037 332.2595954 174.43530273 333.44604492 C174.10530273 330.14604492 173.77530273 326.84604492 173.43530273 323.44604492 C177.43530273 321.44604492 177.43530273 321.44604492 180.89624023 322.34448242 C182.2064141 322.82187371 183.51106413 323.31464877 184.81030273 323.82104492 C190.49743869 325.99620449 195.14204894 327.26935837 201.18530273 325.75854492 C204.16280955 324.02166595 204.20907248 322.6675697 205.43530273 319.44604492 C206.76223544 316.59755785 208.18757779 313.80371228 209.62280273 311.00854492 C210.16517578 309.9015625 210.16517578 309.9015625 210.71850586 308.7722168 C214.08285981 302.25776208 218.59113889 297.05679524 225.68530273 294.57104492 C230.65167291 292.56751781 234.56634544 289.54315213 238.75952148 286.25073242 C243.79461493 282.85480078 248.07100623 282.22162163 254.06030273 282.44604492 C259.57943316 282.71455118 259.57943316 282.71455118 264.43530273 280.44604492 C265.79674075 278.64937414 265.79674075 278.64937414 266.87280273 276.57104492 C268.98013961 272.98600231 271.14371522 271.01508883 274.43530273 268.44604492 C275.4352387 267.0439608 276.41293028 265.62585493 277.37280273 264.19604492 C280.02759701 260.55421175 280.02759701 260.55421175 283.49780273 259.63354492 C287.35601872 260.70071104 288.70370454 262.52387011 291.43530273 265.44604492 C293.69875083 267.01243113 296.006006 268.47509591 298.34936523 269.91870117 C300.62730547 271.5866312 301.99509817 273.01853031 303.43530273 275.44604492 C303.76342773 277.62963867 303.76342773 277.62963867 303.68530273 279.88354492 C303.66983398 280.62475586 303.65436523 281.3659668 303.63842773 282.12963867 C303.43530273 284.44604492 303.43530273 284.44604492 302.93139648 286.74975586 C302.42050662 289.52646236 302.30936696 292.08200993 302.29467773 294.90307617 C302.2753418 295.93368164 302.25600586 296.96428711 302.23608398 298.02612305 C302.20241686 300.1691653 302.18401506 302.31250546 302.18139648 304.45581055 C302.01747181 311.37947113 300.98846054 316.1063034 296.43530273 321.44604492 C291.55130732 325.87571519 286.76897304 326.19570222 280.43530273 326.44604492 C280.97425256 328.76352917 281.55704795 330.70982622 282.56030273 332.88354492 C283.57414955 335.85266774 283.28557538 337.47009068 282.43530273 340.44604492 C275.70906897 339.54059038 275.70906897 339.54059038 273.37670898 338.73510742 C272.73604492 338.6397168 272.09538086 338.54432617 271.43530273 338.44604492 C269.96241625 339.91893141 268.49501609 341.39940437 267.09545898 342.94213867 C264.45646306 345.33275851 261.88258012 345.75658944 258.43530273 346.44604492 C258.90967773 347.47729492 259.38405273 348.50854492 259.87280273 349.57104492 C261.28052661 352.83138654 262.00365771 355.90655575 262.43530273 359.44604492 C256.98051089 358.87783744 252.52471018 357.49966547 247.43530273 355.44604492 C247.32573242 356.1447168 247.21616211 356.84338867 247.10327148 357.56323242 C246.86543945 358.92834961 246.86543945 358.92834961 246.62280273 360.32104492 C246.47198242 361.2259668 246.32116211 362.13088867 246.16577148 363.06323242 C245.43530273 365.44604492 245.43530273 365.44604492 242.43530273 367.44604492 C236.99167039 367.0831361 232.19371882 364.99934136 227.43530273 362.44604492 C226.77530273 362.44604492 226.11530273 362.44604492 225.43530273 362.44604492 C225.06405273 363.28135742 225.06405273 363.28135742 224.68530273 364.13354492 C223.43530273 366.44604492 223.43530273 366.44604492 221.24780273 368.63354492 C218.6266369 372.70087122 219.47656203 375.86539488 220.43530273 380.44604492 C220.75838256 381.78189982 221.08850478 383.11615016 221.43530273 384.44604492 C222.70738895 383.82359893 223.97792155 383.19797725 225.24780273 382.57104492 C225.95549805 382.22299805 226.66319336 381.87495117 227.39233398 381.51635742 C229.64776692 380.38039632 229.64776692 380.38039632 232.43530273 378.44604492 C235.14844161 377.97005565 237.70020076 377.64864507 240.43530273 377.44604492 C241.28350586 377.36870117 242.13170898 377.29135742 243.00561523 377.21166992 C247.54527742 376.96774777 249.70462597 376.92413295 253.49780273 379.63354492 C256.31184371 383.71844311 256.56439792 387.43629151 256.53295898 392.30932617 C256.52973633 393.19555664 256.52651367 394.08178711 256.52319336 394.99487305 C256.51481445 395.90688477 256.50643555 396.81889648 256.49780273 397.75854492 C256.49329102 398.68989258 256.4887793 399.62124023 256.48413086 400.58081055 C256.47239507 402.86928865 256.45597637 405.157633 256.43530273 407.44604492 C257.05961182 407.35500488 257.6839209 407.26396484 258.32714844 407.17016602 C259.55050903 407.00895264 259.55050903 407.00895264 260.79858398 406.84448242 C261.60851807 406.73281738 262.41845215 406.62115234 263.25292969 406.50610352 C265.43530273 406.44604492 265.43530273 406.44604492 267.62280273 408.07104492 C268.43530273 410.44604492 268.43530273 410.44604492 267.93530273 412.88354492 C265.18576352 417.58067442 261.5968377 420.39905951 257.06030273 423.25854492 C249.51163754 428.18213354 243.95654581 434.69967074 241.43530273 443.44604492 C241.08570627 445.83674689 240.77541977 448.23341943 240.49780273 450.63354492 C239.75178235 456.42763655 239.07431493 459.56442248 234.43530273 463.44604492 C231.71657247 465.28987553 228.97310521 467.04842715 226.15405273 468.73510742 C223.38299786 470.40598899 223.38299786 470.40598899 220.84155273 472.53198242 C218.43530273 474.44604492 218.43530273 474.44604492 216.20874023 475.44995117 C214.29884387 476.30604296 214.29884387 476.30604296 213.53686523 478.22338867 C212.13579939 484.57412157 212.28409564 490.26132453 214.43530273 496.44604492 C215.81055617 498.42032005 215.81055617 498.42032005 217.43530273 500.19604492 C222.07158635 505.62196321 221.80195368 512.6318196 222.43530273 519.44604492 C222.66088867 520.36514648 222.88647461 521.28424805 223.11889648 522.23120117 C223.22331055 522.96209961 223.32772461 523.69299805 223.43530273 524.44604492 C220.91024688 527.5322243 219.23662878 529.17893624 215.43530273 530.44604492 C209.70503653 530.69092809 204.53753422 530.09761473 198.93530273 528.94604492 C198.20827148 528.80295898 197.48124023 528.65987305 196.73217773 528.51245117 C194.96521202 528.16370794 193.20004964 527.80584769 191.43530273 527.44604492 C191.31413086 528.31745117 191.19295898 529.18885742 191.06811523 530.08666992 C190.71805511 532.57478959 190.35946824 535.06171948 189.99389648 537.54760742 C189.64299671 539.99654428 189.31863855 542.44958348 189.03295898 544.90698242 C188.01071353 552.79287591 188.01071353 552.79287591 185.12280273 556.07104492 C184.23592773 556.52479492 183.34905273 556.97854492 182.43530273 557.44604492 C181.65155273 557.85854492 180.86780273 558.27104492 180.06030273 558.69604492 C175.15995003 560.09614569 170.77341617 559.55139546 165.87280273 558.50854492 C161.9731293 557.71027152 158.25876103 557.3796523 154.29077148 557.33666992 C143.70737971 557.20956681 136.08223864 557.10299842 127.18920898 550.84448242 C123.51372315 548.9780655 121.36802716 549.43159657 117.43530273 550.44604492 C114.74786767 552.71678101 114.74786767 552.71678101 112.43530273 555.44604492 C109.45528244 558.42606521 108.3253997 559.42956164 104.06030273 559.50854492 C98.43973135 557.86113607 94.83463607 555.41385742 91.43530273 550.63354492 C90.17868603 546.62807918 90.17202283 543.40432197 91.43530273 539.44604492 C93.29924753 536.02996766 95.55651397 533.24244724 98.43530273 530.63354492 C103.51888138 525.07338078 106.43530273 517.94719207 106.43530273 510.44604492 C105.61823211 507.06167479 105.61823211 507.06167479 103.43530273 504.44604492 C102.32155273 504.07479492 101.20780273 503.70354492 100.06030273 503.32104492 C97.09720295 502.30423384 96.50891669 501.58581059 95.00952148 498.73901367 C94.18528186 496.62865402 93.40436673 494.50071636 92.67358398 492.35620117 C90.37900091 486.96356903 86.9801457 484.93272267 81.68530273 482.75854492 C76.84624625 480.82529442 72.62348184 479.74536295 67.43530273 479.44604492 C66.77530273 480.76604492 66.11530273 482.08604492 65.43530273 483.44604492 C58.97623237 483.73963903 52.74909382 482.81038148 46.43530273 481.44604492 C44.46707388 479.47781606 44.77281892 476.09795783 44.43530273 473.44604492 C36.99591421 472.31099116 32.34426221 472.53700935 25.43530273 475.44604492 C23.21264648 475.03979492 23.21264648 475.03979492 21.43530273 474.44604492 C21.4655957 473.5656958 21.49588867 472.68534668 21.52709961 471.77832031 C22.23283859 452.24088157 22.23283859 452.24088157 22.62280273 432.69604492 C22.63698242 431.54620117 22.65116211 430.39635742 22.66577148 429.21166992 C22.472525 426.05421894 22.02901551 423.27094875 21.42163086 420.18237305 C20.16287214 412.73774546 20.26305612 405.42371947 20.42358398 397.89916992 C20.44729743 396.43334246 20.47016379 394.96750108 20.49223328 393.50164795 C20.54036853 390.45251695 20.59563195 387.40363449 20.65673828 384.35473633 C20.73452491 380.46611952 20.79883998 376.57743005 20.85839558 372.68849564 C20.9053145 369.67026039 20.95701575 366.6521229 21.01036644 363.63399506 C21.03558717 362.20042241 21.05989959 360.76683346 21.08324623 359.33322906 C21.2021676 352.28713658 21.46093567 345.42335418 22.43530273 338.44604492 C22.58596443 335.75791429 22.70946675 333.08491019 22.78686523 330.39526367 C22.82159439 329.2860833 22.82159439 329.2860833 22.85702515 328.15449524 C22.90430016 326.60077707 22.9495737 325.0469968 22.99291992 323.49316406 C23.05984197 321.14967989 23.13786695 318.80673803 23.21655273 316.46362305 C23.44176161 309.09880438 23.44890633 301.95991361 22.63500977 294.62158203 C21.80822819 285.61491867 25.49618558 276.3534892 31.07202148 269.40698242 C32.77308284 267.61035582 34.52775964 266.01966363 36.43530273 264.44604492 C37.88936523 263.23948242 37.88936523 263.23948242 39.37280273 262.00854492 C45.61278288 258.73255534 55.22460268 259.43841306 61.90014648 261.03588867 C66.02656584 262.86704 69.02330875 265.84003197 72.31030273 268.88354492 C78.60198141 274.7045484 84.42398714 278.649654 93.18530273 278.94604492 C98.79212462 278.65344632 102.42976362 277.33361115 106.56030273 273.44604492 C109.29907678 269.06400646 110.82489691 264.33722432 112.43530273 259.44604492 C111.95061523 259.79538086 111.46592773 260.1447168 110.96655273 260.50463867 C106.29547178 263.67558401 102.21048996 265.98746872 96.43530273 265.44604492 C88.62032336 263.24808197 82.72282853 256.91199309 78.37280273 250.32104492 C72.73818037 241.95999238 63.60036304 237.11179184 53.87280273 235.07104492 C46.3642599 233.95748984 39.98359624 234.34370639 33.43530273 238.44604492 C31.22851212 241.56484078 31.22851212 241.56484078 29.56030273 245.13354492 C29.25350586 245.74004883 28.94670898 246.34655273 28.63061523 246.97143555 C27.88295619 248.45507146 27.15686782 249.94954454 26.43530273 251.44604492 C25.44530273 251.44604492 24.45530273 251.44604492 23.43530273 251.44604492 C22.57294717 236.71612566 22.21426775 222.17196059 23.12280273 207.44604492 C23.18838379 206.20701416 23.25396484 204.9679834 23.3215332 203.69140625 C23.40419434 202.53793701 23.48685547 201.38446777 23.57202148 200.19604492 C23.64122803 199.18026367 23.71043457 198.16448242 23.78173828 197.11791992 C24.5936705 193.79861243 25.72519939 192.49016031 28.43530273 190.44604492 C31.7065408 190.56287485 34.28706633 190.75551566 37.13061523 192.46557617 C49.63047517 197.7833132 66.0896699 191.98631667 77.9465332 187.50830078 C86.29101203 183.94671285 92.8917386 179.82325962 98.08374023 172.30151367 C98.71199707 171.39425537 99.34025391 170.48699707 99.98754883 169.55224609 C100.46530762 168.85719971 100.94306641 168.16215332 101.43530273 167.44604492 C100.72921875 167.71344482 100.02313477 167.98084473 99.2956543 168.25634766 C96.09306948 169.46771667 92.8892055 170.67566625 89.68530273 171.88354492 C88.57413086 172.30442383 87.46295898 172.72530273 86.31811523 173.15893555 C85.24819336 173.56176758 84.17827148 173.96459961 83.07592773 174.37963867 C82.09140625 174.75145264 81.10688477 175.1232666 80.0925293 175.50634766 C64.45166606 181.03755701 49.56780497 174.15714651 35.43530273 167.44604492 C30.10928236 165.25297771 24.8330088 164.07291183 19.35717773 166.28588867 C13.81511693 169.42709489 8.69932128 174.05390935 6.89134216 180.33616638 C5.63107889 185.77695703 5.11714781 190.92141045 5.05639648 196.49682617 C5.03940201 197.31805466 5.02240753 198.13928314 5.00489807 198.98539734 C4.95233698 201.576371 4.91170837 204.16733325 4.87280273 206.75854492 C4.82872953 209.36753408 4.78199682 211.97640735 4.72999573 214.58525085 C4.698275 216.20007979 4.67131355 217.81501123 4.64976501 219.43000793 C4.58527212 222.92690009 4.36962964 226.07944272 3.43530273 229.44604492 C1.56030273 229.19604492 1.56030273 229.19604492 -0.56469727 228.44604492 C-1.81469727 226.38354492 -1.81469727 226.38354492 -2.56469727 224.44604492 C-3.22469727 224.44604492 -3.88469727 224.44604492 -4.56469727 224.44604492 C-5.73676459 223.30845017 -6.90344242 222.16487192 -8.04516602 220.99682617 C-17.8229443 211.01796247 -31.64320511 202.65380268 -45.93969727 202.00854492 C-58.62424339 202.46596267 -69.77678385 209.89402611 -79.35375977 217.72729492 C-81.56469727 219.44604492 -81.56469727 219.44604492 -83.56469727 219.44604492 C-78.58924296 225.04343101 -72.5373722 229.22007489 -64.92797852 229.71948242 C-59.32416437 229.07110723 -54.56188884 225.61739357 -49.78735352 222.81713867 C-42.73071067 219.8148579 -33.56533973 219.88533485 -26.26489258 222.16381836 C-17.72137188 225.61949801 -8.18700465 230.5213941 -3.75219727 238.94604492 C-3.35387695 239.67823242 -2.95555664 240.41041992 -2.54516602 241.16479492 C-0.85888013 245.08826486 -0.43922441 248.90318225 -0.45117188 253.14453125 C-0.45124741 254.04508743 -0.45132294 254.94564362 -0.45140076 255.87348938 C-0.45914268 257.31125984 -0.45914268 257.31125984 -0.46704102 258.77807617 C-0.46916344 260.2656971 -0.46916344 260.2656971 -0.47132874 261.78337097 C-0.47691308 264.94179335 -0.48946275 268.10014408 -0.50219727 271.25854492 C-0.50721429 273.40372619 -0.51177684 275.54890857 -0.51586914 277.6940918 C-0.52687739 282.94476716 -0.54359997 288.19540092 -0.56469727 293.44604492 C-5.04943081 293.44604492 -5.62352185 292.95333504 -9.00219727 290.32104492 C-19.07358508 282.95830673 -29.97139343 277.99656812 -42.56469727 279.44604492 C-46.05077682 280.5334819 -49.35911546 281.82252218 -52.71704102 283.25463867 C-64.91919452 288.35979206 -78.09073703 285.99948618 -89.93017578 281.19995117 C-91.40353785 280.58630546 -92.87565676 279.96966528 -94.34643555 279.34985352 C-99.45374279 277.26893216 -104.01371378 275.44604492 -109.56469727 275.44604492 C-108.7074707 276.36385742 -107.85024414 277.28166992 -106.96704102 278.22729492 C-105.8118386 279.46664108 -104.65690866 280.70624126 -103.50219727 281.94604492 C-102.90383057 282.58807861 -102.30546387 283.2301123 -101.68896484 283.89160156 C-98.64323099 287.16999851 -95.64600674 290.46912019 -92.75219727 293.88354492 C-85.08943761 302.72227264 -77.33240239 308.08823279 -65.56469727 309.44604492 C-57.07476328 309.93649928 -49.36341976 310.27450869 -41.56469727 306.44604492 C-33.25987657 302.44193494 -28.1460301 302.73357817 -19.56469727 305.50854492 C-13.20893194 307.89793038 -6.73650199 311.10243547 -3.56469727 317.44604492 C-3.46541915 319.58352154 -3.43389841 321.72423368 -3.43188477 323.86401367 C-3.43047485 324.53241272 -3.42906494 325.20081177 -3.4276123 325.88946533 C-3.42543858 328.13754187 -3.43188752 330.38548195 -3.43969727 332.63354492 C-3.44202362 333.80145065 -3.44202362 333.80145065 -3.44439697 334.99295044 C-3.47493516 348.27789916 -3.63796649 361.56152274 -3.88409424 374.84414673 C-3.92056809 376.83789736 -3.9546272 378.83169394 -3.98602295 380.82553101 C-4.15538431 391.23530811 -4.53486877 401.5832509 -5.48657227 411.95385742 C-5.56370453 412.8145433 -5.64083679 413.67522919 -5.7203064 414.56199646 C-6.74799443 424.82745525 -9.88679097 432.89103119 -16.56469727 440.82104492 C-21.82077327 443.66808609 -28.18339948 443.44558396 -33.87719727 441.76245117 C-34.86719727 441.35833008 -34.86719727 441.35833008 -35.87719727 440.94604492 C-40.30804911 439.14366451 -44.01193396 438.5444932 -48.59985352 440.16479492 C-51.17293686 441.84267034 -51.91002121 443.50567331 -53.25219727 446.25854492 C-62.23958482 463.49738011 -75.2304565 479.47524654 -87.56469727 494.44604492 C-87.9965332 495.0003418 -88.42836914 495.55463867 -88.87329102 496.12573242 C-95.32231106 504.28744303 -104.1863543 510.42889105 -112.27172852 516.87182617 C-112.83351807 517.31953369 -113.39530762 517.76724121 -113.97412109 518.22851562 C-118.19671952 521.46076403 -118.19671952 521.46076403 -121.20141602 521.34057617 C-125.61097946 520.16776545 -129.36478545 518.27857585 -133.37719727 516.13354492 C-134.20525879 515.69349121 -135.03332031 515.2534375 -135.88647461 514.80004883 C-148.07502314 508.16166365 -159.58056746 500.11728178 -169.56469727 490.44604492 C-167.80168788 481.74176297 -165.11510063 473.39924619 -162.39868164 464.9519043 C-161.40402227 461.79510183 -160.46038353 458.63224284 -159.56469727 455.44604492 C-159.34346191 454.66841797 -159.12222656 453.89079102 -158.89428711 453.08959961 C-158.31261156 450.36466838 -158.12111816 448.2183905 -159.5390625 445.74951172 C-161.02987988 443.96804671 -162.616473 442.40569591 -164.31469727 440.82104492 C-165.52612422 439.60797089 -166.73306792 438.39040532 -167.93579102 437.16870117 C-168.54664551 436.55397949 -169.1575 435.93925781 -169.78686523 435.3059082 C-172.52077917 432.44584828 -174.96132312 429.38834721 -177.37719727 426.25854492 C-177.82490479 425.67886963 -178.2726123 425.09919434 -178.73388672 424.50195312 C-180.01949058 422.82300526 -181.29431454 421.13653042 -182.56469727 419.44604492 C-183.33040039 418.43026367 -184.09610352 417.41448242 -184.88500977 416.36791992 C-188.45609093 411.54498374 -191.7398903 406.74255799 -194.56469727 401.44604492 C-202.83891491 401.34581887 -211.0551353 401.40990449 -219.31469727 401.94604492 C-220.02335937 401.98568359 -220.73202148 402.02532227 -221.4621582 402.06616211 C-224.69409227 402.24746207 -227.87496642 402.48280993 -231.09204102 402.86401367 C-234.20359462 403.12939958 -236.53058757 403.16627844 -239.56469727 402.44604492 C-241.20043945 400.62207031 -241.20043945 400.62207031 -242.54907227 398.16870117 C-243.30063599 396.80418823 -243.30063599 396.80418823 -244.06738281 395.41210938 C-246.5923847 390.41027537 -248.9084063 385.34042867 -251.12719727 380.19604492 C-251.60463379 379.09647461 -252.08207031 377.9969043 -252.57397461 376.86401367 C-255.88963111 369.16196073 -259.17683982 361.49525453 -261.56469727 353.44604492 C-261.84958008 352.60299805 -262.13446289 351.75995117 -262.42797852 350.89135742 C-263.04922511 348.38101403 -263.26882301 346.93719324 -262.56469727 344.44604492 C-259.68340538 341.14660637 -256.16987698 338.89665442 -252.56469727 336.44604492 C-250.37568397 334.80797581 -248.22215395 333.12534358 -246.06469727 331.44604492 C-244.96470424 330.60454945 -243.86444567 329.76340097 -242.76391602 328.92260742 C-238.93747748 325.98096791 -235.20755136 322.92277843 -231.49047852 319.84448242 C-229.56469727 318.44604492 -229.56469727 318.44604492 -227.56469727 318.44604492 C-227.87407227 317.76541992 -228.18344727 317.08479492 -228.50219727 316.38354492 C-230.70951715 310.28095466 -230.71408641 304.02540959 -230.69750977 297.61791992 C-230.69846649 296.78826721 -230.69942322 295.9586145 -230.70040894 295.1038208 C-230.70108624 293.35575281 -230.69926345 291.60768223 -230.69506836 289.85961914 C-230.68974113 287.21779564 -230.69501459 284.57614426 -230.70141602 281.93432617 C-230.70444021 273.39038072 -230.62816211 264.93922884 -229.56469727 256.44604492 C-236.97108929 251.12727528 -244.57512342 246.15584031 -252.25512695 241.2421875 C-253.90958294 240.1771113 -255.55506608 239.09795075 -257.19067383 238.00415039 C-258.74802232 236.98204034 -260.33930706 236.00951838 -261.9621582 235.0949707 C-265.11324811 233.15898432 -267.20597566 231.81901262 -268.16723633 228.13989258 C-268.4440078 220.23151191 -266.29689581 212.38796092 -264.43969727 204.75854492 C-264.28296539 204.10084106 -264.12623352 203.44313721 -263.9647522 202.76550293 C-257.71772103 176.59906869 -257.71772103 176.59906869 -252.56469727 171.44604492 C-250.50192261 171.20553589 -250.50192261 171.20553589 -247.93139648 171.21899414 C-246.97055145 171.2191452 -246.00970642 171.21929626 -245.01974487 171.2194519 C-243.98012604 171.22977448 -242.9405072 171.24009705 -241.86938477 171.25073242 C-240.8068045 171.25356232 -239.74422424 171.25639221 -238.64944458 171.25930786 C-235.24608228 171.27052853 -231.84298041 171.29563655 -228.43969727 171.32104492 C-226.13631564 171.33107228 -223.8329299 171.34019855 -221.52954102 171.34838867 C-215.87450381 171.37047399 -210.21961914 171.40397004 -204.56469727 171.44604492 C-204.2751416 170.53250244 -203.98558594 169.61895996 -203.68725586 168.67773438 C-202.80605246 166.14087283 -201.93865837 164.0405965 -200.60375977 161.73901367 C-200.22074707 161.07844971 -199.83773437 160.41788574 -199.44311523 159.73730469 C-199.0294873 159.04306396 -198.61585938 158.34882324 -198.18969727 157.63354492 C-197.75415527 156.89869873 -197.31861328 156.16385254 -196.86987305 155.40673828 C-193.59197847 149.96460021 -190.09687207 144.70227942 -186.43969727 139.50854492 C-185.93978271 138.79303467 -185.43986816 138.07752441 -184.92480469 137.34033203 C-182.04449851 133.29071316 -178.97017958 129.76789359 -175.50219727 126.19604492 C-173.66324979 124.08378348 -173.66324979 124.08378348 -172.56469727 121.44604492 C-173.0739429 118.55478479 -173.0739429 118.55478479 -174.48266602 115.59057617 C-174.96582275 114.44508301 -175.44897949 113.29958984 -175.94677734 112.11938477 C-176.21164948 111.5181781 -176.47652161 110.91697144 -176.74942017 110.29754639 C-177.56216021 108.45180659 -178.34956873 106.59720637 -179.12988281 104.73754883 C-180.18815084 102.21976517 -181.25029483 99.70372679 -182.31860352 97.19018555 C-182.58431152 96.56474854 -182.85001953 95.93931152 -183.1237793 95.29492188 C-183.67520028 94.00315801 -184.22997859 92.71282294 -184.7878418 91.42382812 C-185.60670078 89.52793486 -186.41107219 87.62643686 -187.21313477 85.72338867 C-187.92735596 84.05651001 -187.92735596 84.05651001 -188.65600586 82.35595703 C-189.57359811 79.41754167 -189.76182917 78.22976605 -188.56469727 75.44604492 C-187.20922852 73.94604492 -187.20922852 73.94604492 -185.37719727 72.44604492 C-184.65532227 71.8453418 -183.93344727 71.24463867 -183.18969727 70.62573242 C-182.32344727 69.90643555 -181.45719727 69.18713867 -180.56469727 68.44604492 C-179.49961206 67.51409537 -178.4372876 66.57898472 -177.37719727 65.64135742 C-169.79294934 58.96330174 -162.06933992 52.93493086 -153.56469727 47.44604492 C-152.46254883 46.72674805 -151.36040039 46.00745117 -150.22485352 45.26635742 C-144.12630621 41.46677765 -144.12630621 41.46677765 -141.56469727 40.44604492 C-139.52954102 41.08276367 -139.52954102 41.08276367 -137.56469727 42.44604492 C-136.80415039 42.89979492 -136.04360352 43.35354492 -135.26000977 43.82104492 C-129.86767503 47.23018056 -124.62026056 50.78947081 -119.43969727 54.50854492 C-118.54009277 55.14288452 -118.54009277 55.14288452 -117.62231445 55.79003906 C-115.00709147 57.64147029 -112.51641175 59.48806554 -110.09594727 61.59448242 C-107.90324568 63.41378917 -106.29373595 64.61877536 -103.56469727 65.44604492 C-99.17845311 64.59498262 -95.50985074 62.48384939 -91.56469727 60.44604492 C-88.81629598 59.223847 -86.03713892 58.08210289 -83.25219727 56.94604492 C-82.1743396 56.50059326 -82.1743396 56.50059326 -81.07470703 56.04614258 C-57.6203405 46.44604492 -57.6203405 46.44604492 -47.56469727 46.44604492 C-47.45512695 45.74874268 -47.34555664 45.05144043 -47.23266602 44.33300781 C-45.90871867 36.13031981 -44.29697872 28.00897402 -42.56469727 19.88354492 C-42.30430664 18.62735352 -42.04391602 17.37116211 -41.77563477 16.0769043 C-41.52040039 14.87743164 -41.26516602 13.67795898 -41.00219727 12.44213867 C-40.7740332 11.3611792 -40.54586914 10.28021973 -40.31079102 9.16650391 C-39.56469727 6.44604492 -39.56469727 6.44604492 -37.56469727 3.44604492 C-34.94277499 2.71385154 -32.51839858 2.19691532 -29.84204102 1.78588867 C-29.04853745 1.65995834 -28.25503387 1.53402802 -27.43748474 1.40428162 C-18.31578037 0.08611242 -9.20197535 -0.04186666 0 0 Z " fill="#653910" transform="translate(500.564697265625,52.553955078125)"/>
<path d="M0 0 C2.92247058 0.00869265 5.84309315 -0.02068913 8.76538086 -0.05200195 C10.63321882 -0.05361001 12.50106023 -0.05304403 14.36889648 -0.05004883 C15.67182899 -0.0668998 15.67182899 -0.0668998 17.00108337 -0.08409119 C22.91351911 -0.01498263 22.91351911 -0.01498263 25.38525391 2.16894531 C26.48471984 4.55320914 27.46359268 6.88629804 28.30249023 9.37573242 C28.62862305 10.3300415 28.95475586 11.28435059 29.29077148 12.26757812 C29.6272168 13.27522217 29.96366211 14.28286621 30.31030273 15.32104492 C31.01548635 17.39544921 31.72121472 19.46966839 32.42749023 21.54370117 C32.76876953 22.55190918 33.11004883 23.56011719 33.46166992 24.59887695 C35.11166345 29.42390819 36.86718868 34.20931286 38.62280273 38.99682617 C39.43530273 41.44604492 39.43530273 41.44604492 39.43530273 43.44604492 C40.02375977 43.41631592 40.6122168 43.38658691 41.21850586 43.35595703 C48.14601738 43.16164548 54.25179728 44.26109523 60.93530273 46.00854492 C61.97468994 46.27376953 63.01407715 46.53899414 64.08496094 46.81225586 C73.51656875 49.30419735 82.46294861 52.64967262 91.43530273 56.44604492 C93.10046402 57.1164628 94.76641056 57.78496919 96.43530273 58.44604492 C97.39049805 57.61202148 98.34569336 56.77799805 99.32983398 55.91870117 C106.93090519 49.29710877 114.5765746 42.76155746 122.43530273 36.44604492 C123.21647461 35.68420898 123.99764648 34.92237305 124.80249023 34.13745117 C127.43530273 32.44604492 127.43530273 32.44604492 130.81811523 32.44995117 C134.76337412 33.53638855 137.91893463 35.16580999 141.31030273 37.38354492 C141.89038086 37.74383789 142.47045898 38.10413086 143.06811523 38.4753418 C147.28856273 41.15256492 147.28856273 41.15256492 148.43530273 43.44604492 C147.72374023 44.12666992 147.72374023 44.12666992 146.99780273 44.82104492 C145.34502466 46.37862696 145.34502466 46.37862696 144.43530273 48.44604492 C140.14530273 48.44604492 135.85530273 48.44604492 131.43530273 48.44604492 C134.04042234 53.19497423 134.04042234 53.19497423 136.62280273 55.75854492 C138.60459364 58.69706247 139.07997638 60.73609323 138.88061523 64.27807617 C137.61267945 70.45092142 133.62974191 75.27521792 129.68530273 80.00854492 C127.26163319 82.98116527 126.08158397 84.78634854 125.93530273 88.63354492 C125.39982204 92.71658518 125.15469661 93.19846051 122.24780273 95.75854492 C118.39735282 98.64047676 114.79018763 101.27373627 109.87280273 101.63354492 C106.96622985 100.21752223 106.57617536 99.16840538 105.06030273 96.38354492 C103.88207494 94.21448797 103.88207494 94.21448797 102.43530273 92.44604492 C97.71143284 91.39629606 93.92006697 92.46313824 89.87280273 94.96557617 C87.51019938 97.39880082 87.24132945 100.1443815 86.82202148 103.42260742 C86.43530273 105.44604492 86.43530273 105.44604492 84.43530273 107.44604492 C76.8057157 108.44120845 69.04658156 105.61673219 62.55639648 101.71557617 C60.43530273 99.44604492 60.43530273 99.44604492 60.22827148 96.37963867 C60.3584668 95.22592773 60.48866211 94.0722168 60.62280273 92.88354492 C60.95180792 85.52301023 58.84466187 82.37602163 54.21655273 76.86791992 C52.39346505 74.38916035 51.88697866 73.2787994 51.93530273 70.25854492 C52.10030273 69.33041992 52.26530273 68.40229492 52.43530273 67.44604492 C50.54019575 67.36443744 48.6440577 67.30658033 46.74780273 67.25854492 C45.69206055 67.22374023 44.63631836 67.18893555 43.54858398 67.15307617 C39.991187 67.48783749 38.24354935 68.26402752 35.43530273 70.44604492 C34.08932929 72.37418418 34.08932929 72.37418418 33.24780273 74.50854492 C32.12586517 77.07229161 31.4490376 78.43231006 29.43530273 80.44604492 C26.77992901 81.01124495 24.14385561 81.1839269 21.43530273 81.44604492 C20.66288004 83.28305281 20.66288004 83.28305281 20.43530273 85.44604492 C20.90967773 85.89979492 21.38405273 86.35354492 21.87280273 86.82104492 C23.43530273 88.44604492 23.43530273 88.44604492 23.74780273 91.50854492 C23.43530273 94.44604492 23.43530273 94.44604492 21.43530273 96.44604492 C18.80955088 96.24123628 17.73398377 95.77380806 15.95092773 93.81713867 C15.32444336 92.86000977 15.32444336 92.86000977 14.68530273 91.88354492 C14.04334961 90.92254883 14.04334961 90.92254883 13.38842773 89.94213867 C13.07389648 89.44842773 12.75936523 88.9547168 12.43530273 88.44604492 C8.09346071 88.63068859 8.09346071 88.63068859 4.43530273 90.44604492 C4.18524888 93.40421599 4.18524888 93.40421599 4.43530273 96.44604492 C5.09530273 97.10604492 5.75530273 97.76604492 6.43530273 98.44604492 C6.56030273 101.57104492 6.56030273 101.57104492 6.43530273 104.44604492 C1.23815665 106.95608942 -4.04492826 107.1181924 -9.70727539 107.5690918 C-19.13961512 108.45262742 -25.74345551 111.96852378 -33.63500977 117.11791992 C-37.23174 118.74843763 -38.81424819 118.56277943 -42.56469727 117.44604492 C-45.30297852 116.14135742 -45.30297852 116.14135742 -47.87719727 114.57104492 C-48.73958008 114.05799805 -49.60196289 113.54495117 -50.49047852 113.01635742 C-52.56469727 111.44604492 -52.56469727 111.44604492 -53.56469727 108.44604492 C-55.87864077 106.79322814 -57.12361401 106.40881062 -59.97094727 106.64916992 C-63.15141585 107.62630184 -64.15779633 108.95045706 -66.31469727 111.44604492 C-71.9038535 116.77899196 -77.66355476 116.33956315 -84.96704102 116.31323242 C-88.61150423 116.03915896 -88.61150423 116.03915896 -90.56469727 118.44604492 C-91.20722077 120.51478526 -91.20722077 120.51478526 -91.56469727 122.44604492 C-90.45094727 122.73479492 -89.33719727 123.02354492 -88.18969727 123.32104492 C-84.56469727 124.44604492 -84.56469727 124.44604492 -82.56469727 126.44604492 C-82.59594727 128.29760742 -82.59594727 128.29760742 -83.56469727 130.44604492 C-85.97094727 132.59448242 -85.97094727 132.59448242 -89.06469727 134.82104492 C-89.61005127 135.21751221 -90.15540527 135.61397949 -90.71728516 136.02246094 C-94.45500104 138.72030752 -98.284881 141.26164853 -102.14282227 143.78198242 C-105.25947372 145.92342358 -108.25666575 148.20177784 -111.25219727 150.50854492 C-111.78707764 150.92031982 -112.32195801 151.33209473 -112.87304688 151.75634766 C-114.44485165 152.97610706 -116.00482399 154.2110637 -117.56469727 155.44604492 C-118.09901367 155.84984375 -118.63333008 156.25364258 -119.18383789 156.66967773 C-127.38290241 163.06981277 -130.30257586 173.90836261 -133.56469727 183.44604492 C-134.95828234 187.36104671 -136.24232441 190.96248564 -138.56469727 194.44604492 C-139.05829341 197.01103297 -139.48720401 199.5534084 -139.87719727 202.13354492 C-140.82736569 207.89631321 -142.04889707 212.06473471 -145.54907227 216.84057617 C-147.17364429 219.40864964 -147.04044452 221.52359752 -146.56469727 224.44604492 C-145.90469727 225.43604492 -145.24469727 226.42604492 -144.56469727 227.44604492 C-143.60839701 231.27124594 -143.3782883 235.14206514 -143.18969727 239.07104492 C-143.1162207 240.45163086 -143.1162207 240.45163086 -143.04125977 241.86010742 C-143.56469727 244.44604492 -143.56469727 244.44604492 -145.59594727 246.53198242 C-149.10030679 248.79137212 -152.68251513 250.64821571 -156.43969727 252.44604492 C-160.47516924 254.39893873 -164.4609623 256.35162781 -168.32250977 258.63354492 C-172.15747476 260.77742897 -175.28363961 261.49854604 -179.61157227 261.87573242 C-180.75625977 261.98594727 -180.75625977 261.98594727 -181.92407227 262.09838867 C-183.50162285 262.2453174 -185.07976192 262.38607542 -186.65844727 262.52026367 C-192.10374191 263.0593113 -196.48431257 264.42354753 -201.56469727 266.44604492 C-210.26220793 268.32310241 -219.7112913 267.53848188 -228.56469727 267.44604492 C-228.89469727 270.41604492 -229.22469727 273.38604492 -229.56469727 276.44604492 C-229.89469727 276.44604492 -230.22469727 276.44604492 -230.56469727 276.44604492 C-230.67514688 269.70861846 -230.26602639 263.14624281 -229.56469727 256.44604492 C-236.95036179 251.10115612 -244.57738934 246.15439058 -252.25512695 241.2421875 C-253.90958294 240.1771113 -255.55506608 239.09795075 -257.19067383 238.00415039 C-258.74802232 236.98204034 -260.33930706 236.00951838 -261.9621582 235.0949707 C-265.11324811 233.15898432 -267.20597566 231.81901262 -268.16723633 228.13989258 C-268.4440078 220.23151191 -266.29689581 212.38796092 -264.43969727 204.75854492 C-264.28296539 204.10084106 -264.12623352 203.44313721 -263.9647522 202.76550293 C-257.71772103 176.59906869 -257.71772103 176.59906869 -252.56469727 171.44604492 C-250.50192261 171.20553589 -250.50192261 171.20553589 -247.93139648 171.21899414 C-246.97055145 171.2191452 -246.00970642 171.21929626 -245.01974487 171.2194519 C-243.98012604 171.22977448 -242.9405072 171.24009705 -241.86938477 171.25073242 C-240.8068045 171.25356232 -239.74422424 171.25639221 -238.64944458 171.25930786 C-235.24608228 171.27052853 -231.84298041 171.29563655 -228.43969727 171.32104492 C-226.13631564 171.33107228 -223.8329299 171.34019855 -221.52954102 171.34838867 C-215.87450381 171.37047399 -210.21961914 171.40397004 -204.56469727 171.44604492 C-204.2751416 170.53250244 -203.98558594 169.61895996 -203.68725586 168.67773438 C-202.80605246 166.14087283 -201.93865837 164.0405965 -200.60375977 161.73901367 C-200.22074707 161.07844971 -199.83773437 160.41788574 -199.44311523 159.73730469 C-199.0294873 159.04306396 -198.61585938 158.34882324 -198.18969727 157.63354492 C-197.75415527 156.89869873 -197.31861328 156.16385254 -196.86987305 155.40673828 C-193.59197847 149.96460021 -190.09687207 144.70227942 -186.43969727 139.50854492 C-185.93978271 138.79303467 -185.43986816 138.07752441 -184.92480469 137.34033203 C-182.04449851 133.29071316 -178.97017958 129.76789359 -175.50219727 126.19604492 C-173.66324979 124.08378348 -173.66324979 124.08378348 -172.56469727 121.44604492 C-173.0739429 118.55478479 -173.0739429 118.55478479 -174.48266602 115.59057617 C-174.96582275 114.44508301 -175.44897949 113.29958984 -175.94677734 112.11938477 C-176.21164948 111.5181781 -176.47652161 110.91697144 -176.74942017 110.29754639 C-177.56216021 108.45180659 -178.34956873 106.59720637 -179.12988281 104.73754883 C-180.18815084 102.21976517 -181.25029483 99.70372679 -182.31860352 97.19018555 C-182.58431152 96.56474854 -182.85001953 95.93931152 -183.1237793 95.29492188 C-183.67520028 94.00315801 -184.22997859 92.71282294 -184.7878418 91.42382812 C-185.60670078 89.52793486 -186.41107219 87.62643686 -187.21313477 85.72338867 C-187.92735596 84.05651001 -187.92735596 84.05651001 -188.65600586 82.35595703 C-189.57359811 79.41754167 -189.76182917 78.22976605 -188.56469727 75.44604492 C-187.20922852 73.94604492 -187.20922852 73.94604492 -185.37719727 72.44604492 C-184.65532227 71.8453418 -183.93344727 71.24463867 -183.18969727 70.62573242 C-182.32344727 69.90643555 -181.45719727 69.18713867 -180.56469727 68.44604492 C-179.49961206 67.51409537 -178.4372876 66.57898472 -177.37719727 65.64135742 C-169.79294934 58.96330174 -162.06933992 52.93493086 -153.56469727 47.44604492 C-152.46254883 46.72674805 -151.36040039 46.00745117 -150.22485352 45.26635742 C-144.12630621 41.46677765 -144.12630621 41.46677765 -141.56469727 40.44604492 C-139.52954102 41.08276367 -139.52954102 41.08276367 -137.56469727 42.44604492 C-136.80415039 42.89979492 -136.04360352 43.35354492 -135.26000977 43.82104492 C-129.86767503 47.23018056 -124.62026056 50.78947081 -119.43969727 54.50854492 C-118.54009277 55.14288452 -118.54009277 55.14288452 -117.62231445 55.79003906 C-115.00709147 57.64147029 -112.51641175 59.48806554 -110.09594727 61.59448242 C-107.90324568 63.41378917 -106.29373595 64.61877536 -103.56469727 65.44604492 C-99.17845311 64.59498262 -95.50985074 62.48384939 -91.56469727 60.44604492 C-88.81629598 59.223847 -86.03713892 58.08210289 -83.25219727 56.94604492 C-82.1743396 56.50059326 -82.1743396 56.50059326 -81.07470703 56.04614258 C-57.6203405 46.44604492 -57.6203405 46.44604492 -47.56469727 46.44604492 C-47.45512695 45.74874268 -47.34555664 45.05144043 -47.23266602 44.33300781 C-45.90871867 36.13031981 -44.29697872 28.00897402 -42.56469727 19.88354492 C-42.30430664 18.62735352 -42.04391602 17.37116211 -41.77563477 16.0769043 C-41.52040039 14.87743164 -41.26516602 13.67795898 -41.00219727 12.44213867 C-40.7740332 11.3611792 -40.54586914 10.28021973 -40.31079102 9.16650391 C-39.56469727 6.44604492 -39.56469727 6.44604492 -37.56469727 3.44604492 C-34.94277499 2.71385154 -32.51839858 2.19691532 -29.84204102 1.78588867 C-29.04853745 1.65995834 -28.25503387 1.53402802 -27.43748474 1.40428162 C-18.31578037 0.08611242 -9.20197535 -0.04186666 0 0 Z " fill="#60A410" transform="translate(500.564697265625,52.553955078125)"/>
<path d="M0 0 C25.08 0 50.16 0 76 0 C80.80212923 9.60425845 85.596208 19.19997238 90.25 28.875 C91.07298584 30.58478027 91.07298584 30.58478027 91.91259766 32.32910156 C96.76134932 42.43772791 101.47650751 52.60554091 106.1484375 62.796875 C109.39644791 69.88132042 112.69770118 76.94074679 116 84 C123.67684693 67.7228873 131.35143046 51.44466952 138.9375 35.125 C139.72640625 33.42802979 139.72640625 33.42802979 140.53125 31.69677734 C142.96641609 26.44287576 145.37706077 21.17995634 147.734375 15.890625 C148.15211182 14.95331543 148.56984863 14.01600586 149.00024414 13.05029297 C149.76713692 11.32222161 150.52966079 9.59220175 151.28686523 7.85986328 C153.78400912 2.21599088 153.78400912 2.21599088 156 0 C158.39772034 -0.24723816 158.39772034 -0.24723816 161.44360352 -0.24291992 C162.58140762 -0.24599655 163.71921173 -0.24907318 164.89149475 -0.25224304 C166.12484055 -0.24505753 167.35818634 -0.23787201 168.62890625 -0.23046875 C170.51886574 -0.22978142 170.51886574 -0.22978142 172.44700623 -0.2290802 C175.11446525 -0.22605464 177.7815807 -0.21922585 180.44897461 -0.20581055 C183.87464028 -0.18880341 187.3001586 -0.18499669 190.72586155 -0.18575573 C193.98522445 -0.1854191 197.24455623 -0.17658533 200.50390625 -0.16796875 C202.35696129 -0.16629951 202.35696129 -0.16629951 204.24745178 -0.16459656 C205.9494297 -0.15502678 205.9494297 -0.15502678 207.68579102 -0.14526367 C208.69013687 -0.14145187 209.69448273 -0.13764008 210.72926331 -0.13371277 C213 0 213 0 214 1 C214.0970006 3.20225454 214.12186709 5.40768664 214.12025452 7.61207581 C214.12153615 8.66078862 214.12153615 8.66078862 214.12284368 9.73068756 C214.12450051 12.09074751 214.11897384 14.45073753 214.11352539 16.81079102 C214.11324354 18.49564614 214.11340122 20.18050139 214.1139679 21.86535645 C214.11425594 26.45400453 214.10835811 31.0426267 214.10139394 35.63126874 C214.09516153 40.42124632 214.09455669 45.21122443 214.09336853 50.00120544 C214.09025488 59.07829032 214.08204104 68.15536321 214.07201904 77.2324428 C214.06085895 87.56358581 214.05534772 97.89472939 214.05032361 108.22587693 C214.03985845 129.48392613 214.02151255 150.74195891 214 172 C194.53 172 175.06 172 155 172 C154.67 140.32 154.34 108.64 154 76 C152.35 79.96 150.7 83.92 149 88 C147.78972039 90.71179546 146.57074355 93.41278443 145.3203125 96.10546875 C144.82576569 97.17809967 144.82576569 97.17809967 144.32122803 98.2723999 C143.25773496 100.57832335 142.19137912 102.88291001 141.125 105.1875 C139.60813115 108.4733853 138.09291976 111.76003309 136.578125 115.046875 C136.19627045 115.87505234 135.81441589 116.70322968 135.42098999 117.5565033 C132.85960816 123.1172331 130.32003544 128.68745593 127.796875 134.265625 C127.46319916 135.00279251 127.12952332 135.73996002 126.78573608 136.49946594 C125.51117041 139.31628076 124.23686694 142.13319561 122.96832275 144.95272827 C118.85943388 154.08518809 114.54340756 163.07575664 110 172 C106.37 172 102.74 172 99 172 C94.10402679 162.35805179 89.3875863 152.66504612 84.95596313 142.80102539 C83.36794735 139.26667731 81.76913917 135.73720686 80.171875 132.20703125 C79.83803299 131.46848907 79.50419098 130.7299469 79.16023254 129.96902466 C74.72270142 120.16095013 70.21438198 110.38529915 65.71047974 100.60757446 C65.00186386 99.06915352 64.29345425 97.53063755 63.58526611 95.99201965 C62.94473997 94.60048178 62.30371778 93.20917205 61.66204834 91.81816101 C59.39681895 86.8969045 57.20086135 81.95193804 55 77 C54.67 108.35 54.34 139.7 54 172 C36.18 172 18.36 172 0 172 C0 115.24 0 58.48 0 0 Z " fill="#5E320E" transform="translate(749,644)"/>
<path d="M0 0 C8.5880572 -0.02312635 17.17610149 -0.04091658 25.76418209 -0.05181217 C29.751572 -0.05704036 33.73894067 -0.06413684 37.72631836 -0.07543945 C41.57125114 -0.08627061 45.41616345 -0.09227732 49.26111031 -0.09487724 C50.73118983 -0.09673108 52.20126818 -0.10035091 53.67133904 -0.10573006 C55.72354467 -0.11294355 57.77566467 -0.11399081 59.82788086 -0.11352539 C61.58327431 -0.11685631 61.58327431 -0.11685631 63.37413025 -0.12025452 C66 0 66 0 67 1 C67.09106325 2.75605157 67.11130806 4.51580296 67.10438538 6.27420044 C67.10172668 7.99019691 67.10172668 7.99019691 67.09901428 9.74085999 C67.08879494 11.64054787 67.08879494 11.64054787 67.07836914 13.57861328 C67.07485515 14.91713839 67.07188738 16.25566504 67.06942749 17.5941925 C67.06374121 20.48400924 67.055722 23.37380746 67.04640388 26.26361465 C67.0332531 30.83591366 67.03495142 35.40812806 67.04063416 39.98043823 C67.04155424 40.75157648 67.04247432 41.52271473 67.04342228 42.31722081 C67.04639429 44.69325156 67.04955951 47.06928201 67.05273438 49.4453125 C67.06552657 59.2950777 67.06757575 69.14444553 67.02416992 78.99414062 C66.9926471 86.17113562 66.98939114 93.34752401 67.01892942 100.52453601 C67.03346939 104.32299932 67.0336882 108.12025021 66.99952888 111.91861343 C66.96763471 115.49626319 66.97322367 119.07192842 67.00703049 122.64954185 C67.0155889 124.58175133 66.98460412 126.5140105 66.95228577 128.44596863 C66.97042917 134.79653575 66.97042917 134.79653575 69.73914909 140.3127861 C78.59078843 148.22882346 88.93104664 150.25742535 100.55078125 149.88671875 C109.54545134 148.84033527 116.06960676 145.6238649 122 138.75 C124.72823117 134.99868214 125.12735283 133.29562355 125.15148926 128.71702576 C125.15983292 127.5966391 125.16817657 126.47625244 125.17677307 125.32191467 C125.18095749 124.08702805 125.18514191 122.85214142 125.18945312 121.57983398 C125.20218296 119.59067124 125.21491307 117.60150849 125.2276535 115.61234581 C125.24041128 113.4709183 125.25072651 111.32949114 125.26036072 109.18804741 C125.28055077 104.73071923 125.30820623 100.27345688 125.33703613 95.81617737 C125.40228336 85.55110148 125.45770451 75.28597685 125.51302338 65.02084351 C125.56382222 55.61191161 125.6166661 46.20300362 125.67754889 36.79413086 C125.70596327 32.35874389 125.72953536 27.9233649 125.74947357 23.48793209 C125.7596155 21.39609363 125.77200049 19.30428321 125.78541565 17.21246338 C125.8017991 14.65584927 125.81457788 12.09920874 125.82322693 9.54255676 C125.83157059 8.42498993 125.83991425 7.3074231 125.84851074 6.1559906 C125.85366447 5.1787223 125.85881821 4.20145399 125.86412811 3.1945715 C126 1 126 1 127 0 C128.98887494 -0.09930533 130.98130417 -0.12799462 132.97265625 -0.12939453 C134.8896936 -0.13412277 134.8896936 -0.13412277 136.84545898 -0.13894653 C138.25113967 -0.13715675 139.65682005 -0.1351058 141.0625 -0.1328125 C142.49357113 -0.13348558 143.92464215 -0.13445564 145.35571289 -0.13571167 C148.35857224 -0.13718844 151.3614019 -0.13503476 154.36425781 -0.13037109 C158.22152571 -0.12467381 162.07872404 -0.12795292 165.93598938 -0.13394356 C168.89213591 -0.13754974 171.84826583 -0.13641032 174.80441284 -0.13381577 C176.22704069 -0.13314665 177.64967003 -0.13397437 179.07229614 -0.13629532 C181.05731174 -0.13882274 183.04233259 -0.13429042 185.02734375 -0.12939453 C186.72491821 -0.12820114 186.72491821 -0.12820114 188.45678711 -0.12698364 C191 0 191 0 192 1 C192.10515296 2.80404631 192.13966222 4.61223413 192.14717102 6.41932678 C192.15790398 8.18364044 192.15790398 8.18364044 192.16885376 9.9835968 C192.17154266 11.2858873 192.17423157 12.5881778 192.17700195 13.92993164 C192.18326407 15.30624566 192.18991064 16.68255797 192.19691467 18.05886841 C192.21435497 21.80922083 192.22488597 25.55956047 192.2331202 29.30994344 C192.23826694 31.6536419 192.24434301 33.99733637 192.25063133 36.34103203 C192.26969708 43.67518637 192.28392182 51.00933059 192.2922433 58.34350497 C192.30200343 66.80615911 192.32828486 75.26855082 192.36874419 83.73111254 C192.39894135 90.27218249 192.41371582 96.81317742 192.41702431 103.3543157 C192.41937193 107.26036195 192.42829333 111.16612831 192.45348549 115.07209969 C192.47683262 118.75181185 192.48097313 122.43106126 192.47072411 126.1108284 C192.46999558 128.09649375 192.48904306 130.08213594 192.50878906 132.06770325 C192.46057903 140.37101626 191.50485857 145.80264922 186.0625 152.3203125 C163.38230928 172.16547938 131.4108628 172.54590577 102.92749023 172.44604492 C100.19280295 172.43688172 97.45897193 172.44373982 94.72436523 172.46655273 C65.88121746 172.7055996 27.57401902 172.49380927 5.3125 150.75 C1.41612263 146.57828976 -0.25059334 143.96587347 -0.24050903 138.17243958 C-0.24325836 136.9566774 -0.24600769 135.74091522 -0.24884033 134.48831177 C-0.24176209 133.13909814 -0.23449247 131.7898855 -0.22705078 130.44067383 C-0.2264867 129.02153023 -0.22680316 127.60238605 -0.22793579 126.1832428 C-0.22851045 122.32812052 -0.21673794 118.47312229 -0.20278788 114.61802888 C-0.19029928 110.59014147 -0.1891115 106.56225132 -0.18673706 102.53434753 C-0.18051678 94.90582061 -0.16409857 87.2773509 -0.14403808 79.64884919 C-0.12169611 70.96455144 -0.11068994 62.28025098 -0.10064721 53.59593165 C-0.07973281 35.73058864 -0.0445462 17.86529892 0 0 Z " fill="#60A511" transform="translate(62,644)"/>
<path d="M0 0 C1.02976456 -0.0071553 2.05952911 -0.01431061 3.12049866 -0.02168274 C4.26053345 -0.02437164 5.40056824 -0.02706055 6.57514954 -0.02983093 C7.76890701 -0.03640213 8.96266449 -0.04297333 10.19259644 -0.04974365 C14.17208604 -0.06956256 18.151535 -0.08117266 22.13105774 -0.09111023 C23.50653923 -0.09515936 24.88202052 -0.09927633 26.2575016 -0.10346031 C32.73952257 -0.12255033 39.22153208 -0.13675666 45.70357579 -0.14507228 C53.13883884 -0.15477059 60.57379826 -0.18087642 68.0089547 -0.22157317 C73.77827533 -0.25204235 79.54751075 -0.26657102 85.31691009 -0.26985329 C88.74946245 -0.27217498 92.18169218 -0.28074421 95.61415672 -0.30631447 C124.22267761 -0.48979862 155.10363395 1.56847471 177.26387024 21.92451477 C184.61181599 30.17102587 185.78111461 39.49597528 185.38056946 50.10420227 C184.5488759 62.57662465 180.6451904 73.82815519 171.39668274 82.40498352 C167.90321583 85.23272625 164.32066437 87.27218933 160.24433899 89.14717102 C159.39226868 89.55580383 158.54019836 89.96443665 157.66230774 90.38545227 C142.2470299 97.05096063 123.95276836 99.99185614 107.24433899 100.14717102 C106.20261536 100.16086731 105.16089172 100.1745636 104.08760071 100.18867493 C91.90710714 100.32710858 79.72384938 100.36693574 67.55683899 99.70967102 C66.46278748 99.65093811 66.46278748 99.65093811 65.34663391 99.59101868 C60.51257182 99.28128744 60.51257182 99.28128744 58.24433899 98.14717102 C58.24433899 122.56717102 58.24433899 146.98717102 58.24433899 172.14717102 C37.12433899 172.14717102 16.00433899 172.14717102 -5.75566101 172.14717102 C-5.7782061 149.8688101 -5.79663905 127.59045838 -5.80747318 105.31208897 C-5.81263663 94.96861933 -5.81968025 84.62515728 -5.83110046 74.2816925 C-5.84104582 65.2697599 -5.84751408 56.25783279 -5.84974951 47.24589485 C-5.85105687 42.47105763 -5.85414431 37.69623609 -5.86139107 32.92140388 C-5.86814894 28.43257189 -5.87027845 23.94376214 -5.86876869 19.45492554 C-5.86904513 17.80247311 -5.87105163 16.15001999 -5.87486649 14.49757195 C-5.87980011 12.25143571 -5.87866054 10.00538481 -5.87591553 7.75924683 C-5.87683732 6.49915582 -5.87775911 5.23906481 -5.87870884 3.94078922 C-5.67677405 -0.64384016 -4.13972675 0.01966389 0 0 Z M58.24433899 19.14717102 C58.24433899 37.62717102 58.24433899 56.10717102 58.24433899 75.14717102 C64.78246399 75.22967102 71.32058899 75.31217102 78.05683899 75.39717102 C81.11735535 75.45179504 81.11735535 75.45179504 84.23970032 75.50752258 C95.90508497 75.62939093 106.86666536 75.37903937 115.81074524 66.84248352 C120.11024399 61.75806265 122.35479762 55.84832809 122.24433899 49.14717102 C121.40193569 41.03417925 119.16205294 33.5501469 113.05683899 27.89717102 C101.52780468 18.85093514 88.1603141 18.86706053 74.18183899 19.02217102 C68.92246399 19.06342102 63.66308899 19.10467102 58.24433899 19.14717102 Z " fill="#60A511" transform="translate(293.7556610107422,643.8528289794922)"/>
<path d="M0 0 C44.55 0 89.1 0 135 0 C135 9.24 135 18.48 135 28 C108.6 28 82.2 28 55 28 C55 42.85 55 57.7 55 73 C81.4 73 107.8 73 135 73 C135 81.25 135 89.5 135 98 C133.2917059 99.7082941 131.13995623 99.11971926 128.86213684 99.12442017 C128.12702377 99.12082489 127.39191071 99.11722961 126.63452148 99.11352539 C125.86384338 99.11367142 125.09316528 99.11381744 124.2991333 99.1139679 C121.73975861 99.1132686 119.1804558 99.10547545 116.62109375 99.09765625 C114.85132385 99.09579213 113.08155344 99.0943682 111.31178284 99.09336853 C106.64448634 99.08954288 101.97722077 99.0797122 97.30993652 99.06866455 C91.714924 99.05665707 86.11990116 99.05204841 80.52487946 99.04621124 C72.01656477 99.03650047 63.50831798 99.01734425 55 99 C55 123.09 55 147.18 55 172 C36.85 172 18.7 172 0 172 C0 115.24 0 58.48 0 0 Z " fill="#5E320E" transform="translate(488,644)"/>
<path d="M0 0 C2.15187696 1.96251178 2.93399969 2.69199857 3.5625 5.625 C2.96012351 9.23925894 2.05994717 10.54011282 -0.0625 13.4375 C-2.17417718 16.46575648 -2.97504882 17.82222282 -3.5 21.5625 C-1.13704616 26.97760255 3.30842588 29.59471605 8 33 C13.42760234 37.11908022 16.78476703 40.48725239 19.11328125 46.984375 C20.59372933 50.34962262 22.152825 51.66087211 25.56640625 53.02734375 C26.55511719 53.32769531 27.54382813 53.62804687 28.5625 53.9375 C32.51798982 55.16735818 36.23743302 56.52421968 40 58.25 C45.5964425 60.52468308 51.03620678 60.88767442 57 60 C59.41533957 58.92275855 60.92920858 57.70840292 63 56 C68.50288025 53.7988479 74.34772349 54.48039238 79.6875 56.6875 C87.54556135 60.52861777 91.39917093 66.69603979 94.37548828 74.71459961 C95.45293878 78.65752931 95.18554156 82.56792903 95.125 86.625 C95.22487391 95.76600184 97.59406722 101.14498411 103.1640625 108.25 C105 111 105 111 104.94921875 113.31640625 C103.44842401 115.97830968 100.82460169 116.0584661 98 117 C93.39729609 121.60270391 89.77259047 127.69975479 89.6875 134.3125 C89.84946045 137.94002896 89.84946045 137.94002896 91 141 C91.680625 141.268125 92.36125 141.53625 93.0625 141.8125 C97.88065588 143.76026514 102.62710675 146.43695356 105.14453125 151.13671875 C105.84647709 153.06274747 106.43242596 155.0301842 107 157 C109.11452238 159.11452238 113.56995426 158.44561649 116.43359375 158.62109375 C119 159 119 159 121 161 C120.76110915 165.41948076 118.82803819 167.73008085 116 171 C114.85185003 173.29629994 114.69230191 175.07698086 114.4375 177.625 C114.35371094 178.44226563 114.26992188 179.25953125 114.18359375 180.1015625 C114.12300781 180.72804688 114.06242188 181.35453125 114 182 C114.99 181.67 115.98 181.34 117 181 C118.10085938 181.14179687 119.20171875 181.28359375 120.3359375 181.4296875 C128.05680227 182.43229482 128.05680227 182.43229482 135.02050781 179.53222656 C139.22892957 175.44764472 142.65982361 170.8043633 146 166 C146.66 166.33 147.32 166.66 148 167 C146.03188035 169.47113782 144.06016233 171.9392068 142.08203125 174.40234375 C140.92495138 175.84597998 139.77212796 177.29316489 138.63671875 178.75390625 C132.19443515 186.87871066 123.35323831 193.00285109 115.29296875 199.42578125 C114.7311792 199.87348877 114.16938965 200.32119629 113.59057617 200.7824707 C109.36797774 204.01471911 109.36797774 204.01471911 106.36328125 203.89453125 C101.95371781 202.72172053 98.19991181 200.83253093 94.1875 198.6875 C93.35943848 198.24744629 92.53137695 197.80739258 91.67822266 197.35400391 C79.48967413 190.71561873 67.98412981 182.67123685 58 173 C59.76300939 164.29571805 62.44959663 155.95320126 65.16601562 147.50585938 C66.16067499 144.34905691 67.10431373 141.18619792 68 138 C68.22123535 137.22237305 68.4424707 136.44474609 68.67041016 135.64355469 C69.2520857 132.91862346 69.44357911 130.77234558 68.02563477 128.3034668 C66.53481739 126.52200179 64.94822426 124.95965099 63.25 123.375 C62.03857305 122.16192597 60.83162935 120.9443604 59.62890625 119.72265625 C59.01805176 119.10793457 58.40719727 118.49321289 57.77783203 117.85986328 C55.04391809 114.99980336 52.60337414 111.94230229 50.1875 108.8125 C49.73979248 108.23282471 49.29208496 107.65314941 48.83081055 107.0559082 C47.54520669 105.37696034 46.27038273 103.6904855 45 102 C43.85144531 100.47632813 43.85144531 100.47632813 42.6796875 98.921875 C39.10860634 94.09893882 35.82480697 89.29651307 33 84 C24.72578236 83.89977395 16.50956197 83.96385957 8.25 84.5 C7.18700684 84.55945801 7.18700684 84.55945801 6.10253906 84.62011719 C2.87060499 84.80141715 -0.31026916 85.03676501 -3.52734375 85.41796875 C-6.63889735 85.68335466 -8.96589031 85.72023351 -12 85 C-13.63574219 83.17602539 -13.63574219 83.17602539 -14.984375 80.72265625 C-15.48541748 79.81298096 -15.98645996 78.90330566 -16.50268555 77.96606445 C-19.02768744 72.96423044 -21.34370903 67.89438375 -23.5625 62.75 C-24.03993652 61.65042969 -24.51737305 60.55085938 -25.00927734 59.41796875 C-28.32493384 51.71591581 -31.61214255 44.04920961 -34 36 C-34.28488281 35.15695312 -34.56976563 34.31390625 -34.86328125 33.4453125 C-35.48452785 30.93496911 -35.70412574 29.49114832 -35 27 C-32.11870276 23.70055532 -28.6043624 21.45169828 -25 19 C-22.86556723 17.36466345 -20.74227904 15.71951481 -18.625 14.0625 C-12.45974536 9.31780247 -6.23572319 4.65151243 0 0 Z " fill="#60A410" transform="translate(273,370)"/>
<path d="M0 0 C18.48 0 36.96 0 56 0 C56 56.76 56 113.52 56 172 C37.52 172 19.04 172 0 172 C0 115.24 0 58.48 0 0 Z " fill="#5E320E" transform="translate(652,644)"/>
<path d="M0 0 C0.66 0.33 1.32 0.66 2 1 C-2.28251095 6.37704849 -6.57202877 11.74178416 -11 17 C-12.32 16.67 -13.64 16.34 -15 16 C-14.28457031 15.29488281 -13.56914062 14.58976563 -12.83203125 13.86328125 C-10.02335285 11.05460285 -7.35067865 8.13475104 -4.6875 5.1875 C-3.36298828 3.72376953 -3.36298828 3.72376953 -2.01171875 2.23046875 C-1.34785156 1.49441406 -0.68398438 0.75835938 0 0 Z " fill="#619710" transform="translate(419,536)"/>
<path d="M0 0 C0.33 0.99 0.66 1.98 1 3 C-0.40445835 5.2636564 -2.1967913 7.0208685 -4 9 C-5.32 8.67 -6.64 8.34 -8 8 C-5.33333333 5.33333333 -2.66666667 2.66666667 0 0 Z " fill="#618110" transform="translate(412,544)"/>
</svg>
