<svg width="1850" height="1400" viewBox="0 0 641 994" fill="none" xmlns="http://www.w3.org/2000/svg">
<path d="M345.121 227.126C349.515 227.126 353.077 223.564 353.077 219.171C353.077 214.777 349.515 211.215 345.121 211.215C340.727 211.215 337.166 214.777 337.166 219.171C337.166 223.564 340.727 227.126 345.121 227.126Z" fill="#E3F0FF"/>
<path d="M316.011 213.767C316.013 215.613 315.299 217.387 314.02 218.718C312.741 220.049 310.997 220.833 309.152 220.905C308.719 216.158 308.799 211.379 309.392 206.649C311.192 206.775 312.877 207.581 314.106 208.902C315.335 210.224 316.016 211.962 316.011 213.767Z" fill="#E3F0FF"/>
<path d="M530.292 79.4402C530.292 79.4402 525.387 20.0628 461.763 22.3558" stroke="#FF523B" stroke-linecap="round" stroke-linejoin="round"/>
<path d="M521.658 6.56396C523.014 6.74341 534.718 63.8877 468.442 78.104" stroke="#FF523B" stroke-linecap="round" stroke-linejoin="round"/>
<path d="M545.046 44.1284C523.293 46.3217 503.174 33.0425 511.688 2.57617" stroke="#FF523B" stroke-linecap="round" stroke-linejoin="round"/>
<path d="M455.263 50.5481C463.761 48.2965 472.431 46.7559 481.184 45.9423C521.54 42.8119 517.612 68.6325 509.736 90.1464" stroke="#FF523B" stroke-linecap="round" stroke-linejoin="round"/>
<path d="M545.085 46.0627C545.091 51.9765 543.93 57.8333 541.669 63.298C539.408 68.7626 536.092 73.7278 531.91 77.9095C527.729 82.0912 522.764 85.4073 517.299 87.6679C511.834 89.9286 505.977 91.0896 500.064 91.0843C495.011 91.0889 489.994 90.2325 485.229 88.5521C476.021 82.5407 469.332 73.3656 466.427 62.7595C463.521 52.1535 464.6 40.8506 469.459 30.9855C474.318 21.1203 482.621 13.3758 492.8 9.21436C502.979 5.05296 514.329 4.76275 524.708 8.39855L525.366 8.81726C531.446 12.9419 536.422 18.4936 539.86 24.9865C543.297 31.4795 545.092 38.7159 545.085 46.0627Z" fill="#FF523B"/>
<path d="M536.832 44.0282C536.584 40.7415 535.975 37.492 535.018 34.338" stroke="white" stroke-linecap="round" stroke-linejoin="round"/>
<path d="M499.646 83.487C510.354 83.7861 528.538 75.5115 534.759 58.9225" stroke="white" stroke-linecap="round" stroke-linejoin="round"/>
<path d="M403.66 984.278C403.67 985.391 403.907 986.49 404.358 987.508C404.956 988.624 410.001 990.519 415.404 991.695C415.656 991.715 415.91 991.715 416.162 991.695C422.901 990.818 428.125 984.397 433.668 978.356C439.211 972.315 441.305 958.657 441.305 952.436C441.305 946.215 437.795 941.33 436.918 937.242C436.041 933.155 441.305 929.646 444.894 925.558C448.483 921.471 447.825 909.189 447.825 899.538C447.946 894.322 446.387 889.206 443.378 884.943C443.378 890.147 442.88 900.216 441.045 901.433C438.832 902.908 434.705 904.942 432.711 902.549C430.717 900.156 433.309 896.567 428.723 895.91C424.137 895.252 410.041 893.517 409.144 901.253C408.386 907.913 405.016 958.198 404.079 974.368C404.079 974.986 403.92 979.891 403.84 982.603C403.739 983.156 403.679 983.716 403.66 984.278Z" fill="#FF523B"/>
<path d="M8.21606 90.6451H63.0076L64.8818 28.6757L10.4093 29.4533L8.21606 90.6451Z" fill="#E3F0FF"/>
<path d="M107.89 63.927C93.6655 59.0952 78.9572 55.8259 64.0251 54.1769C48.3732 52.5819 34.9744 53.8978 33.7781 61.8135C33.7781 62.0328 33.7781 62.2521 33.7781 62.4914C33.7781 62.7306 33.9376 62.8104 34.0373 62.9699C35.1723 64.7578 36.5552 66.3757 38.1447 67.7751C43.568 72.7598 52.5603 77.904 63.2275 82.7092C83.0375 91.3999 103.635 98.1702 124.738 102.927C126.991 103.426 129.125 103.884 131.139 104.283C151.077 108.271 160.728 107.732 165.334 105.28C166.452 104.704 167.405 103.853 168.103 102.806C168.801 101.759 169.22 100.552 169.321 99.2982V99.1387C162.303 86.8166 126.054 70.4469 107.89 63.927ZM156.78 97.2445C156.724 97.3266 156.657 97.4005 156.58 97.4638C156.51 97.5467 156.43 97.6204 156.341 97.6832C154.168 99.2384 146.651 99.2185 136.662 97.6832C133.791 97.2246 130.68 96.6464 127.51 95.9485C123.522 95.0712 119.255 93.9546 114.948 92.6985C107.531 90.5052 97.9408 87.4347 88.1908 83.9654C81.0527 81.4331 73.8549 78.6816 67.3748 75.9899C66.0588 75.4316 64.7628 74.8733 63.5266 74.2951C58.6851 72.2196 54.0178 69.7593 49.5695 66.9377C48.7587 66.3794 48.0209 65.8411 47.3563 65.3227C46.6983 64.7843 46.1002 64.2659 45.6017 63.7675C44.9706 63.2691 44.4625 62.6323 44.1168 61.9063C43.771 61.1803 43.5969 60.3844 43.6078 59.5803C43.6653 59.1662 43.8303 58.7743 44.0864 58.4438C44.2547 58.2156 44.4563 58.014 44.6845 57.8457C47.4361 55.8518 55.0128 56.1908 64.0051 57.726C66.8963 58.2245 69.9867 58.8227 73.0374 59.5205L75.7889 60.1386L76.7061 60.3579C77.6831 60.5773 78.7 60.8165 79.657 61.0757L80.634 61.315L83.4852 62.0527L84.4822 62.3119L86.1171 62.7506C94.0926 64.884 101.031 67.0773 104.7 68.3932C109.166 70.0083 117.64 73.338 126.473 77.266L128.686 78.2629L129.803 78.7614C132.016 79.7782 134.229 80.7552 136.383 81.8718L138.516 82.9285L140.51 83.9853C141.866 84.7031 143.202 85.4009 144.498 86.0988C146.073 86.9761 147.548 87.8335 148.884 88.6908C149.702 89.1893 150.459 89.7077 151.177 90.1862C151.895 90.6648 152.533 91.1632 153.171 91.6418C153.809 92.1203 153.949 92.2599 154.288 92.5789C156.102 94.1939 157.119 95.6694 156.959 96.8657C156.923 97.0019 156.862 97.1302 156.78 97.2445Z" fill="#327BED"/>
<path d="M371.859 210.477C369.654 211.226 367.561 212.273 365.638 213.587C364.661 213.906 362.109 213.368 362.368 209.002C362.627 204.635 364.621 199.551 370.224 201.624C375.827 203.698 371.859 210.477 371.859 210.477Z" fill="#E3F0FF"/>
<path d="M373.593 214.943C373.593 214.943 383.563 214.464 379.575 207.645C379.575 207.645 384.819 203.657 383.563 197.676C382.306 191.694 380.313 191.914 380.313 191.914C380.313 191.914 365.957 195.582 370.144 185.294C372.317 179.95 378.558 180.708 378.558 180.708C378.558 180.708 378.558 168.625 369.366 167.369C369.366 167.369 363.006 177.797 356.187 171.357C349.368 164.917 356.187 163.022 356.187 163.022C356.187 163.022 349.208 162.683 348.032 167.269C348.132 166.93 346.816 153.851 339.837 154.768C332.859 155.685 328.372 168.226 328.512 173.111C328.512 173.111 323.348 164.099 320.018 165.933C316.688 167.768 315.273 174.268 318.343 178.694C318.343 178.694 332.44 167.528 348.77 180.947C358.621 189.175 365.551 200.364 368.529 212.849C370.417 212.9 372.22 213.646 373.593 214.943Z" fill="#E3F0FF"/>
<path d="M314.834 184.915C312.181 191.88 310.36 199.135 309.411 206.529C308.818 211.258 308.738 216.038 309.172 220.785C310.248 231.871 314.515 240.325 321.534 243.953C327.236 246.924 334.713 246.685 343.745 242.119L345.44 241.222" stroke="#327BED" stroke-linecap="round" stroke-linejoin="round"/>
<path d="M358.918 214.624C355.568 209.62 354.412 200.847 360.174 198.673" stroke="#327BED" stroke-linecap="round" stroke-linejoin="round"/>
<path d="M368.569 213.029C363.664 193.589 334.673 164.857 314.894 184.936C314.894 184.936 315.094 176.482 321.035 173.351C326.977 170.221 353.635 164.279 371.58 200.887C371.922 203.009 371.832 205.179 371.315 207.265C370.797 209.352 369.864 211.313 368.569 213.029Z" fill="#FF523B" stroke="#FF523B" stroke-linecap="round" stroke-linejoin="round"/>
<path d="M414.608 772.549C419.493 794.202 421.806 826.922 420.849 830.052C424.938 828.3 428.879 826.219 432.632 823.831C426.332 791.291 418.935 754.046 415.744 741.564C413.529 733.037 410.415 724.769 406.453 716.9C404.858 724.317 409.743 750.915 414.608 772.549Z" fill="#E3F0FF"/>
<path d="M130.162 541.679C138.716 543.154 144.917 550.113 148.426 562.475C148.426 562.475 146.871 548.019 150.061 544.53C150.164 544.414 150.277 544.307 150.4 544.211C152.762 542.195 155.238 540.318 157.817 538.588C168.564 531.051 166.849 519.028 169.78 509.677C171.774 503.416 197.695 473.309 217.175 451.855C207.704 451.855 184.555 477.277 174.905 489.12C165.254 500.964 162.782 512.708 155.903 520.344C149.024 527.981 136.802 534.88 128.846 531.57C128.746 531.57 121.628 540.223 130.162 541.679Z" fill="#E3F0FF"/>
<path d="M202.18 405.936C209.039 409.425 219.028 413.194 228.26 411.698C242.815 409.346 235.558 397.223 213.286 391.58C211.06 396.761 207.645 401.345 203.317 404.959C202.918 405.179 202.559 405.557 202.18 405.936Z" fill="#E3F0FF"/>
<path d="M299.841 442.802C320.398 431.497 332.521 443.999 315.294 451.854C298.067 459.71 315.154 466.25 330.128 463.499C345.102 460.747 370.643 472.371 352.061 479.45C333.478 486.528 275.237 468.264 279.244 455.922C283.252 443.58 292.962 446.571 299.841 442.802Z" fill="#E3F0FF"/>
<path d="M342.788 282.057C350.763 276.673 363.903 288.158 351.88 300.002C339.857 311.845 305.383 317.468 301.435 299.463C297.487 281.459 310.687 280.96 318.862 288.736C325.92 295.515 342.788 282.057 342.788 282.057Z" fill="#E3F0FF"/>
<path d="M275.256 407.83C275.835 416.842 276.054 424.2 276.074 430.042C279.124 429.683 282.594 430.161 283.531 434.807C285.266 443.52 297.149 434.348 298.066 424.638C298.983 414.928 322.232 402.267 327.575 390.064C337.824 366.676 297.827 395.109 300.399 387.094C302.971 379.078 289.812 384.561 282.454 391.44C279.543 394.192 277.111 400.811 275.256 407.83Z" fill="#E3F0FF"/>
<path d="M395.886 415.148C405.177 423.123 411.518 435.485 404.559 434.827C397.601 434.169 412.315 453.51 401.389 456.102C390.462 458.694 385.976 471.714 373.475 470.617C360.973 469.52 342.63 456.481 351.084 451.935C359.538 447.389 379.735 449.801 376.047 447.408C372.358 445.016 355.869 428.327 362.807 424.738C369.746 421.149 370.045 424.419 370.783 424.738C371.521 425.057 366.815 390.384 395.886 415.148Z" fill="#E3F0FF"/>
<path d="M473.647 782.917C473.259 783.572 473.139 784.351 473.309 785.093C473.48 785.836 473.929 786.484 474.564 786.904C478.711 789.576 482.958 792.607 483.357 792.886C489.019 799.426 499.607 813.124 508.34 824.01C515.159 832.484 520.842 839.243 522.297 839.602C524.73 840.22 529.654 838.226 533.283 835.335C533.981 816.274 528.578 798.808 520.303 792.726C509.118 784.512 506.486 773.645 509.995 765.55C513.504 757.455 496.038 731.873 493.326 729.919C491.472 728.544 481.363 736.16 475.521 740.806C483.237 748.961 490.515 770.574 487.484 772.469C484.453 774.363 480.187 773.186 478.352 776.456C476.977 778.728 475.416 780.882 473.686 782.897L473.647 782.917Z" fill="#FF523B"/>
<path d="M417.439 521.54C417.439 533.504 416.123 545.467 414.508 560.84C411.418 590.07 406.752 633.715 404.02 638.401C403.901 638.58 403.781 638.78 403.622 638.979L403.462 639.179L403.083 639.597C402.283 640.426 401.409 641.18 400.471 641.85C399.813 642.329 399.076 642.807 398.298 643.286C397.879 643.565 397.421 643.824 396.962 644.084C396.045 644.622 395.068 645.14 394.011 645.639C393.493 645.898 392.955 646.157 392.396 646.396C391.838 646.636 391.798 646.676 391.479 646.815C394.729 631.702 399.455 607.117 404.339 574.757C410.321 535.358 408.068 508.959 406.493 496.856C409.683 496.079 413.192 495.421 415.525 494.862C416.791 503.699 417.431 512.614 417.439 521.54Z" fill="#E3F0FF"/>
<path d="M388.507 632.48C374.949 634.473 357.622 630.705 346.636 625.401L346.317 625.242L342.329 623.248C339.877 622.032 337.425 620.835 334.892 619.659C319.32 612.481 305.224 621.792 305.224 621.792C294.263 618.087 282.6 616.941 271.128 618.443C271.946 607.496 274.977 582.413 274.059 569.214C273.312 552.399 275.251 535.572 279.802 519.367C281.516 513.126 283.65 500.206 285.265 489.659C288.95 492.318 293.137 494.202 297.572 495.196C302.007 496.19 306.598 496.273 311.066 495.441C318.702 502.439 357.044 516.556 368.11 509.837C368.987 509.298 369.925 508.78 370.902 508.261C376.481 505.336 382.226 502.74 388.109 500.485H388.248C389.983 499.827 398.218 496.837 398.218 496.837C407.748 541.699 388.507 632.48 388.507 632.48Z" fill="#327BED"/>
<path d="M394.35 645.479C391.419 663.982 389.226 684.16 392.875 692.435C393.998 694.797 395.242 697.1 396.603 699.334C396.942 699.932 397.301 700.53 397.68 701.168C399.674 704.438 401.847 708.246 404.16 712.533C404.898 713.929 405.635 715.384 406.393 716.9C410.376 724.766 413.51 733.034 415.744 741.564C419.234 755.282 427.707 798.668 434.427 833.063C439.312 858.484 443.439 879.619 443.439 879.619" stroke="#327BED" stroke-linecap="round" stroke-linejoin="round"/>
<path d="M516.115 106.815C516.294 109.408 513.722 129.625 508.02 142.705C504.949 149.724 498.31 165.136 493.524 179.293C515.776 177.06 520.322 127.193 525.885 110.743C532.126 92.2802 515.218 95.4106 527.34 91.1038C534.598 88.5317 536.831 78.7817 537.449 71.1651C532.25 78.9466 524.756 84.9153 516.009 88.242C507.262 91.5687 497.695 92.0881 488.639 89.728C493.126 98.2817 494.222 99.1989 501.4 100.854C508.578 102.509 515.955 104.243 516.115 106.815Z" fill="#E3F0FF"/>
<path d="M411.157 337.825C410.467 332.169 410.798 326.436 412.134 320.897C412.992 318.245 415.125 307.937 415.125 307.937C422.941 304.707 433.429 295.974 437.576 292.544C439.473 290.979 441.471 289.54 443.558 288.238H443.199C435.901 288.238 422.104 293.661 424.018 285.227C425.932 276.793 427.746 257.313 418.036 259.306C408.326 261.3 402.544 290.989 401.766 295.196C401.128 298.725 402.624 318.624 397.34 328.912C401.57 332.429 406.21 335.421 411.157 337.825Z" fill="#E3F0FF"/>
<path d="M505.21 224.853C505.185 230.691 507.242 236.346 511.012 240.804C520.811 231.278 528.946 220.178 535.078 207.965C536.069 205.838 536.915 203.646 537.61 201.405C535.134 200.585 532.542 200.168 529.934 200.169C523.383 200.169 517.101 202.768 512.465 207.396C507.83 212.024 505.22 218.303 505.21 224.853Z" fill="#E3F0FF"/>
<path d="M242.955 312.902C247.32 313.893 251.871 313.683 256.125 312.292C260.379 310.901 264.177 308.383 267.113 305.005C270.049 301.627 272.014 297.516 272.798 293.11C273.583 288.703 273.157 284.167 271.567 279.983C266.792 281.487 262.364 283.925 258.541 287.156C254.717 290.388 251.574 294.348 249.296 298.805C247.222 302.873 245.089 307.678 242.955 312.902Z" fill="#E3F0FF"/>
<path d="M234.063 422.605C234.056 425.733 234.651 428.834 235.817 431.737V431.637C246.983 420.471 250.632 409.007 251.19 405.059C251.782 402.741 252.624 400.495 253.702 398.359C248.146 399.538 243.163 402.59 239.588 407.003C236.013 411.417 234.062 416.925 234.063 422.605Z" fill="#E3F0FF"/>
<path d="M292.083 702.604C296.071 715.026 300.059 724.536 302.611 728.086C305.821 732.592 313.059 735.503 322.011 737.875C324.059 734.221 325.13 730.101 325.122 725.912C325.122 719.355 322.517 713.066 317.88 708.43C313.244 703.793 306.955 701.188 300.398 701.188C297.565 701.175 294.752 701.654 292.083 702.604Z" fill="#E3F0FF"/>
<path d="M328.592 679.734C329.266 685.383 330.441 690.961 332.101 696.403C334.095 703.062 339.24 715.145 345.899 729.939C346.537 729.939 347.195 729.939 347.893 729.939C352.576 729.948 357.191 728.816 361.339 726.642C365.487 724.467 369.044 721.316 371.701 717.46C374.359 713.603 376.037 709.158 376.593 704.508C377.148 699.857 376.562 695.142 374.887 690.768C373.212 686.395 370.497 682.495 366.978 679.405C363.458 676.316 359.239 674.13 354.685 673.035C350.132 671.941 345.38 671.972 340.841 673.125C336.302 674.278 332.111 676.519 328.632 679.654L328.592 679.734Z" fill="#E3F0FF"/>
<path d="M592.739 119.377C611.98 171.876 621.61 238.351 614.672 275.976" stroke="#327BED" stroke-linecap="round" stroke-linejoin="round"/>
<path d="M640.373 221.184C641.049 191.694 633.496 162.599 618.56 137.162" stroke="#327BED" stroke-linecap="round" stroke-linejoin="round"/>
<path d="M418.036 306.582C426.729 303.212 438.593 290.87 443.179 288.218C446.588 286.224 483.216 268.738 510.97 240.764C520.77 231.238 528.904 220.139 535.036 207.925C536.028 205.798 536.874 203.607 537.569 201.365C547.538 169.782 546.162 98.8006 546.242 88.6917C546.242 77.8251 549.312 61.1364 550.748 50.8082C552.184 40.4799 548.754 32.8633 541.417 28.2375" stroke="#327BED" stroke-linecap="round" stroke-linejoin="round"/>
<path d="M310.228 266.784C309.949 279.903 314.375 292.704 326.896 287.66C339.418 282.615 353.096 260.064 358.36 257.632C362.629 255.681 367.025 254.022 371.519 252.667C372.755 252.288 373.992 251.949 375.208 251.63C378.697 250.693 382.107 249.955 385.337 249.357C392.814 247.934 400.397 247.134 408.007 246.965C408.007 246.965 411.995 245.429 416.401 243.755C417.677 243.256 419.013 242.778 420.389 242.299C422.682 241.462 424.855 240.684 426.47 240.166C432.173 238.311 459.03 222.879 473.924 211.215C478.239 207.653 483.014 204.689 488.121 202.402C487.997 203.919 488.215 205.446 488.759 206.868C493.046 216.06 501.699 208.523 499.486 203.738C498.13 200.787 494.342 199.889 488.121 202.402C488.26 196.879 490.573 188.325 493.644 179.273C498.429 165.116 505.069 149.704 508.139 142.685C513.842 129.625 516.414 109.408 516.234 106.796C516.055 104.184 508.677 102.389 501.519 100.814C494.362 99.2389 493.245 98.2419 488.759 89.6882" stroke="#327BED" stroke-linecap="round" stroke-linejoin="round"/>
<path d="M365.081 230.655C359.757 241.103 362.409 255.878 362.409 255.878" stroke="#327BED" stroke-linecap="round" stroke-linejoin="round"/>
<path d="M360.175 228.362C364.681 231.532 373.075 231.831 376.026 225.491C379.615 217.755 370.762 208.483 361.83 215.521" stroke="#327BED" stroke-linecap="round" stroke-linejoin="round"/>
<path d="M371.521 221.742C370.569 220.906 369.391 220.369 368.136 220.199C366.88 220.029 365.603 220.233 364.462 220.785" stroke="#327BED" stroke-linecap="round" stroke-linejoin="round"/>
<path d="M379.754 216.379C384.619 216.379 387.072 212.391 384.26 207.925C391.399 203.817 391.339 188.704 382.606 184.915C377.621 182.762 371.659 185.932 375.168 189.202C377.721 191.575 380.931 187.667 382.606 179.233C384.081 171.796 378.399 157.3 363.724 162.405C352.977 166.133 361.271 172.673 363.724 167.987C366.635 162.385 357.742 156.722 350.125 160.451C350.125 160.451 350.664 149.943 340.734 149.883C329.768 149.883 326.259 165.834 326.259 165.834C322.929 158.337 310.966 162.983 313.279 177.937" stroke="#327BED" stroke-linecap="round" stroke-linejoin="round"/>
<path d="M269.534 474.704C269.943 465.602 271.703 456.611 274.758 448.026C275.376 446.69 276.094 441.008 276.074 430.081C276.074 424.239 275.834 416.882 275.256 407.87C274.718 399.176 273.84 388.948 272.524 377.044C267.301 329.69 281.058 296.492 284.767 290.75C288.475 285.007 291.406 272.645 291.406 272.645C306.241 269.834 315.791 265.348 318.264 259.386" stroke="#327BED" stroke-linecap="round" stroke-linejoin="round"/>
<path d="M414.269 270.293C411.507 278.379 409.602 286.732 408.587 295.216" stroke="#327BED" stroke-linecap="round" stroke-linejoin="round"/>
<path d="M319.56 253.644C342.409 256.854 343.486 242.578 343.725 242.099C334.693 246.665 327.216 246.905 321.514 243.934C321.042 247.204 320.39 250.446 319.56 253.644Z" fill="#327BED"/>
<path d="M324.964 191.615C325.602 198.175 321.096 206.549 321.096 206.549C322.002 208.088 323.399 209.278 325.062 209.929C326.725 210.579 328.558 210.653 330.268 210.138" stroke="#327BED" stroke-linecap="round" stroke-linejoin="round"/>
<path d="M333.058 224.314C332.779 225.89 327.236 223.637 325.083 223.756C322.929 223.876 319.978 223.597 321.095 221.762C321.747 220.816 322.658 220.078 323.719 219.636C324.78 219.194 325.945 219.067 327.077 219.27C329.369 219.868 333.357 222.56 333.058 224.314Z" stroke="#327BED" stroke-linecap="round" stroke-linejoin="round"/>
<path d="M333.637 198.713C333.398 200.867 334.235 202.701 335.492 202.701C336.748 202.701 337.944 200.947 338.183 198.713C338.423 196.48 337.585 194.726 336.329 194.726C335.073 194.726 333.857 196.54 333.637 198.713Z" fill="#327BED"/>
<path d="M315.612 197.816C315.412 199.61 316.11 201.046 317.147 201.046C318.184 201.046 319.141 199.59 319.38 197.816C319.619 196.041 318.882 194.585 317.845 194.585C316.808 194.585 315.791 195.981 315.612 197.816Z" fill="#327BED"/>
<path d="M345.12 191.994C344.005 190.288 342.295 189.059 340.322 188.547C338.35 188.034 336.257 188.275 334.453 189.222" stroke="#327BED" stroke-linecap="round" stroke-linejoin="round"/>
<path d="M320.717 189.561C319.782 188.877 318.63 188.558 317.477 188.665C316.324 188.771 315.249 189.296 314.456 190.14" stroke="#327BED" stroke-linecap="round" stroke-linejoin="round"/>
<path d="M273.183 474.705C273.183 474.705 279.842 472.053 285.146 479.53C290.45 487.007 300.598 490.496 304.586 488.502C308.574 486.508 322.87 497.295 340.157 502.28C357.444 507.265 378.2 498.472 389.824 493.806C392.237 492.849 394.948 491.952 397.799 491.134C403.881 489.32 410.281 487.884 414.588 487.007C417.758 486.369 419.812 486.01 419.812 486.01C419.256 480.322 417.914 474.74 415.824 469.421C413.571 463.439 411.158 459.212 410.5 456.6C409.324 451.935 416.143 447.289 419.473 443.301C422.803 439.313 412.993 431.178 410.999 426.513C409.005 421.847 412.813 389.806 413.232 375.849C413.651 369.165 414.794 362.546 416.641 356.109C418.775 348.134 421.128 341.773 421.128 341.773C421.128 341.773 388.388 332.98 380.253 302.893C375.347 285.021 377.178 265.968 385.398 249.357V249.357" stroke="#327BED" stroke-linecap="round" stroke-linejoin="round"/>
<path d="M340.655 292.046C330.566 303.092 317.307 304.667 308.753 300.021" stroke="#327BED" stroke-linecap="round" stroke-linejoin="round"/>
<path d="M411.436 337.984C410.519 337.526 410.34 328.793 410.699 326.021C411.057 323.25 413.749 317.447 414.287 312.981" stroke="#327BED" stroke-linecap="round" stroke-linejoin="round"/>
<path d="M398.078 425.416C387.351 420.411 375.687 418.497 376.884 421.607C378.08 424.718 402.804 447.528 395.466 446.63C388.129 445.733 372.557 435.425 372.557 435.425" stroke="#327BED" stroke-linecap="round" stroke-linejoin="round"/>
<path d="M388.508 453.529C380.173 454.008 368.728 460.209 361.351 458.056" stroke="#327BED" stroke-linecap="round" stroke-linejoin="round"/>
<path d="M342.33 471.873C328.751 473.867 317.306 473.069 288.236 461.146" stroke="#327BED" stroke-linecap="round" stroke-linejoin="round"/>
<path d="M312.541 442.803C303.728 448.525 293.24 451.616 288.236 451.855" stroke="#327BED" stroke-linecap="round" stroke-linejoin="round"/>
<path d="M320.716 385.24C308.294 398.539 291.366 416.304 289.991 418.896C289.098 420.695 288.48 422.617 288.156 424.598" stroke="#327BED" stroke-linecap="round" stroke-linejoin="round"/>
<path d="M291.984 394.63C287.837 402.048 283.53 411.718 283.53 411.718" stroke="#327BED" stroke-linecap="round" stroke-linejoin="round"/>
<path d="M148.764 524.491C139.274 535.876 128.826 531.57 128.826 531.57C123.241 535.132 117.349 538.188 111.22 540.701C108.888 541.74 106.271 541.951 103.803 541.3C99.1968 540.004 97.4422 535.318 101.111 533.504C116.424 525.528 115.606 515.2 126.652 508.58C130.696 506.281 134.562 503.681 138.217 500.804V500.804C142.237 497.322 145.849 493.396 148.984 489.1C156.62 479.35 191.094 417.321 202.2 406.016C202.579 405.637 202.938 405.298 203.257 405.039C207.585 401.424 211 396.841 213.226 391.66C216.077 385.578 218.57 377.842 222.737 367.095C228.719 351.483 235.916 329.989 242.895 312.982C245.028 307.758 247.162 303.012 249.236 298.885C251.514 294.427 254.657 290.468 258.48 287.236C262.304 284.005 266.732 281.566 271.507 280.063C277.403 278.097 283.664 277.477 289.831 278.248" stroke="#327BED" stroke-linecap="round" stroke-linejoin="round"/>
<path d="M229.915 404.979C225.188 405.317 220.442 404.7 215.958 403.165" stroke="#327BED" stroke-linecap="round" stroke-linejoin="round"/>
<path d="M267.759 369.608C263.054 379.418 257.112 390.982 253.802 398.359C252.724 400.495 251.882 402.741 251.29 405.059C250.732 409.047 247.083 420.471 235.917 431.637L235.818 431.737C232.408 435.146 225.35 442.703 217.075 451.855C197.695 473.229 171.595 503.337 169.681 509.677C166.85 519.028 168.564 531.051 157.718 538.588C155.139 540.318 152.662 542.195 150.301 544.211C150.178 544.307 150.065 544.414 149.962 544.53C149.322 545.02 148.831 545.679 148.546 546.433C148.261 547.187 148.192 548.006 148.347 548.797" stroke="#327BED" stroke-linecap="round" stroke-linejoin="round"/>
<path d="M146.831 570.829C143.242 560.441 139.852 548.737 138.516 548.737C137.18 548.737 134.17 548.179 133.99 550.252C133.811 552.326 127.311 576.312 127.311 576.312" stroke="#327BED" stroke-linecap="round" stroke-linejoin="round"/>
<path d="M108.687 548.737C99.4359 562.156 89.985 575.754 91.5003 577.628C93.0156 579.502 99.057 577.808 102.267 574.219C105.477 570.63 119.195 548.438 119.195 548.438" stroke="#327BED" stroke-linecap="round" stroke-linejoin="round"/>
<path d="M117.64 547.241C120.086 548.884 122.622 550.389 125.237 551.747C125.237 551.747 113.612 581.416 110.881 586.999C108.149 592.582 102.287 590.169 105.418 577.748" stroke="#327BED" stroke-linecap="round" stroke-linejoin="round"/>
<path d="M124.339 582.632C120.89 586.939 114.749 588.614 115.167 577.01" stroke="#327BED" stroke-linecap="round" stroke-linejoin="round"/>
<path d="M414.428 486.927C416.478 498.322 417.46 509.883 417.359 521.461C417.259 533.424 416.043 545.387 414.428 560.76C411.337 589.99 406.671 633.636 403.94 638.321C403.82 638.501 403.701 638.7 403.541 638.9L403.382 639.099L403.003 639.518C402.231 640.371 401.384 641.151 400.471 641.85C399.813 642.329 399.075 642.808 398.297 643.286C397.878 643.565 397.42 643.824 396.961 644.084C396.044 644.622 394.967 645.14 394.01 645.639C393.492 645.898 392.954 646.157 392.395 646.397C391.837 646.636 391.797 646.676 391.478 646.815L390.76 647.114C389.046 647.832 387.231 648.51 385.357 649.108C380.087 650.862 374.532 651.6 368.987 651.281C350.664 649.726 339.618 634.912 315.332 636.088" stroke="#327BED" stroke-linecap="round" stroke-linejoin="round"/>
<path d="M322.71 642.448C319.856 642.768 316.987 642.928 314.116 642.927C305.17 642.9 296.313 641.139 288.036 637.743C284.27 636.312 280.26 635.634 276.233 635.749C274.547 635.768 272.863 635.875 271.188 636.068C268.415 636.397 265.678 636.984 263.013 637.823C263.013 637.823 261.937 627.136 261.737 620.297C261.737 619.579 261.737 618.901 261.737 618.303C261.737 611.783 265.924 582.832 264.868 568.615C264.129 552.896 266.071 537.166 270.61 522.099C272.976 513.766 274.755 505.278 275.934 496.697C276.931 489.997 277.927 482.879 278.944 474.764" stroke="#327BED" stroke-linecap="round" stroke-linejoin="round"/>
<path d="M334.494 520.364C328.333 548.657 305.603 591.226 304.586 630.765" stroke="white" stroke-linecap="round" stroke-linejoin="round"/>
<path d="M305.105 621.852C304.805 624.823 304.606 627.833 304.506 630.744" stroke="#327BED" stroke-linecap="round" stroke-linejoin="round"/>
<path d="M417.439 521.54C417.439 533.504 416.123 545.467 414.508 560.84C411.417 590.07 406.751 633.716 404.02 638.401C403.9 638.581 403.78 638.78 403.621 638.979L403.461 639.179L403.083 639.598C402.282 640.427 401.408 641.181 400.471 641.851C399.813 642.329 399.075 642.808 398.297 643.286L396.961 644.084C396.044 644.602 394.968 645.14 394.011 645.639C393.492 645.898 392.954 646.157 392.396 646.397L391.478 646.795L390.761 647.114C389.046 647.832 387.231 648.51 385.357 649.108C388.408 634.413 393.034 609.231 397.759 575.574C403.202 536.594 400.67 510.435 398.935 498.531C398.776 497.475 398.636 496.537 398.497 495.72C398.038 492.909 397.699 491.373 397.759 491.154C403.741 489.34 410.241 487.904 414.547 487.027C416.584 498.416 417.552 509.971 417.439 521.54V521.54Z" stroke="#327BED" stroke-linecap="round" stroke-linejoin="round"/>
<path d="M388.508 632.479C371.899 634.114 363.405 634.334 347.075 625.102C330.745 615.87 318.224 617.127 318.224 617.127" stroke="#327BED" stroke-linecap="round" stroke-linejoin="round"/>
<path d="M296.99 619.738C284.01 616.169 261.778 619.738 261.778 619.738" stroke="#327BED" stroke-linecap="round" stroke-linejoin="round"/>
<path d="M320.857 562.135C316.905 553.21 315.286 543.426 316.151 533.703" stroke="white" stroke-linecap="round" stroke-linejoin="round"/>
<path d="M318.264 569.453C312.163 571.088 300 576.312 300 576.312" stroke="white" stroke-linecap="round" stroke-linejoin="round"/>
<path d="M314.316 581.257C310.98 582.284 307.71 583.516 304.526 584.946" stroke="white" stroke-linecap="round" stroke-linejoin="round"/>
<path d="M373.155 518.968C374.292 524.953 373.532 531.142 370.981 536.674" stroke="white" stroke-linecap="round" stroke-linejoin="round"/>
<path d="M387.97 522.617C382.986 536.753 376.546 558.068 368.032 567.678" stroke="white" stroke-linecap="round" stroke-linejoin="round"/>
<path d="M382.626 577.947C372.218 592.342 351.92 617.665 353.476 619.399C355.031 621.134 367.851 610.726 371.6 613.677C375.348 616.628 366.216 624.264 366.216 624.264" stroke="white" stroke-linecap="round" stroke-linejoin="round"/>
<path d="M352.101 744.355C341.972 742.062 331.105 740.248 322.013 737.875C312.921 735.502 305.823 732.591 302.613 728.085C300.041 724.456 296.153 715.025 292.085 702.603C287.128 687.237 283.028 671.608 279.803 655.787C278.427 649.008 277.231 642.249 276.314 635.689" stroke="#327BED" stroke-linecap="round" stroke-linejoin="round"/>
<path d="M409.902 898.86C409.902 898.86 405.914 879.121 391.558 836.233C381.769 806.863 360.374 762.061 345.899 729.939C339.239 715.145 333.936 703.062 332.101 696.403C330.441 690.961 329.266 685.383 328.592 679.734C327.396 669.126 328.871 661.131 329.828 647.832" stroke="#327BED" stroke-linecap="round" stroke-linejoin="round"/>
<path d="M368.569 701.188C365.228 706.221 362.237 711.477 359.616 716.92" stroke="#327BED" stroke-linecap="round" stroke-linejoin="round"/>
<path d="M391.559 836.233C402.425 836.831 413.093 833.441 420.849 830.052C424.938 828.299 428.879 826.219 432.633 823.831" stroke="#327BED" stroke-linecap="round" stroke-linejoin="round"/>
<path d="M403.721 982.682C403.684 983.207 403.684 983.733 403.721 984.257C403.73 985.371 403.967 986.47 404.419 987.488C405.416 989.362 419.014 993.469 425.733 992.592C432.452 991.715 437.696 985.294 443.239 979.253C448.782 973.211 450.876 959.553 450.876 953.333C450.876 947.112 447.366 942.227 446.489 938.139C445.612 934.052 450.876 930.543 454.465 926.455C458.054 922.368 457.396 910.086 457.396 900.435C457.507 896.43 456.616 892.46 454.801 888.887C452.987 885.314 450.308 882.251 447.008 879.978C443.897 877.705 443.02 879.24 443.319 882.371C443.618 885.501 443.319 899.877 441.106 901.352C438.893 902.828 434.765 904.862 432.771 902.469C430.778 900.076 433.37 896.487 428.784 895.829C424.198 895.171 410.101 893.437 409.204 901.173C408.446 907.832 405.077 958.118 404.139 974.288C404.139 975.504 404.02 976.521 403.98 977.319" stroke="#FF523B" stroke-linecap="round" stroke-linejoin="round"/>
<path d="M435.544 722.842C435.79 726.694 435.756 730.559 435.444 734.406V734.406C434.567 745.631 431.676 756.478 428.685 762.201" stroke="#327BED" stroke-linecap="round" stroke-linejoin="round"/>
<path d="M465.849 735.861C460.565 733.688 452.49 730.338 444.515 726.849C441.444 725.533 438.413 724.177 435.542 722.861C430.138 720.602 424.935 717.887 419.99 714.746C413.849 710.041 405.714 702.245 397.679 701.168" stroke="#327BED" stroke-linecap="round" stroke-linejoin="round"/>
<path d="M465.85 735.861C465.85 735.861 484.792 722.742 490.375 719.531" stroke="#FF523B" stroke-linecap="round" stroke-linejoin="round"/>
<path d="M473.627 739.251C481.961 745.552 490.694 770.535 487.444 772.569C484.194 774.602 481.064 773.825 479.23 776.995" stroke="#FF523B" stroke-linecap="round" stroke-linejoin="round"/>
<path d="M496.874 721.346C505.189 729.88 518.627 756.737 517.77 767.205C516.913 777.673 518.189 778.949 522.675 781.501C527.161 784.053 537.17 792.368 538.247 798.987C539.324 805.607 539.523 826.902 536.752 831.607C535.814 833.09 534.619 834.393 533.222 835.455C529.594 838.346 524.669 840.34 522.236 839.722C520.86 839.363 515.178 832.604 508.279 824.13C499.546 813.244 488.959 799.546 483.296 793.006C482.299 791.849 481.481 791.012 480.823 790.274" stroke="#FF523B" stroke-linecap="round" stroke-linejoin="round"/>
<path d="M638.679 951.937C619.658 949.943 602.251 943.443 584.027 945.457C565.803 947.471 536.653 945.457 520.463 945.078C504.272 944.699 479.17 944.699 477.953 945.078" stroke="#327BED" stroke-linecap="round" stroke-linejoin="round"/>
<path d="M547.179 976.222C536.652 975.006 515.278 971.357 504.67 972.992" stroke="#327BED" stroke-linecap="round" stroke-linejoin="round"/>
<path d="M353.396 948.348C322.551 946.035 283.152 945.457 261.678 948.348C240.204 951.239 118.817 948.348 118.817 948.348" stroke="#327BED" stroke-linecap="round" stroke-linejoin="round"/>
<path d="M93.4153 949.624C82.9635 949.747 72.5291 950.513 62.1714 951.917" stroke="#327BED" stroke-linecap="round" stroke-linejoin="round"/>
<path d="M304.526 967.449C283.212 971.437 267.022 965.715 253.144 967.449C239.267 969.184 225.948 971.935 217.853 972.573" stroke="#327BED" stroke-linecap="round" stroke-linejoin="round"/>
<path d="M483.376 792.986C489.039 799.525 499.626 813.223 508.359 824.11C510.543 821.476 513.193 819.266 516.175 817.59C520.941 815.277 517.491 812.326 516.175 808.059C514.859 803.792 507.781 801.639 504.491 798.09C501.201 794.541 492.987 781.321 492.987 781.321C490.123 785.477 486.907 789.379 483.376 792.986Z" fill="#FF523B" stroke="white" stroke-linecap="round" stroke-linejoin="round"/>
<path d="M431.535 912.399C434.427 910.405 428.325 941.868 430.459 951.937C432.213 960.172 413.272 958.238 411.338 951.937C410.281 948.488 411.796 908.212 414.149 910.824C419.253 916.426 423.46 918.021 431.535 912.399Z" fill="#FF523B" stroke="white" stroke-linecap="round" stroke-linejoin="round"/>
<path d="M64.9819 41.2369C64.9819 40.539 65.6798 22.0758 65.6798 22.0758H4.70728" stroke="#327BED" stroke-linecap="round" stroke-linejoin="round"/>
<path d="M3.55215 31.647L1 90.6456H28.7148" stroke="#327BED" stroke-linecap="round" stroke-linejoin="round"/>
<path d="M165.355 105.28C155.206 128.269 146.413 142.466 132.556 153.631C118.698 164.797 116.325 168.167 114.611 174.587C112.896 181.007 111.221 189.082 108.529 191.973C105.838 194.865 97.0447 226.447 94.3729 228.94C91.7011 231.432 84.244 231.931 82.2502 231.273C80.2563 230.615 72.6198 216.817 67.4557 215.481C62.2916 214.145 58.1443 218.472 51.0063 216.977C43.8682 215.481 34.0583 206.17 31.905 201.026C29.7516 195.881 30.4096 192.711 28.2562 192.552C26.1028 192.392 14.1396 190.398 13.4617 184.736" stroke="#327BED" stroke-linecap="round" stroke-linejoin="round"/>
<path d="M34.0372 62.9706C32.3424 75.6915 34.4758 94.2345 37.5863 114.811C40.8562 136.365 38.2841 145.078 33.439 154.689C29.2309 163.201 24.4894 171.438 19.2427 179.353" stroke="#327BED" stroke-linecap="round" stroke-linejoin="round"/>
<path d="M43.5677 77.5459C42.314 79.7257 40.7862 81.7359 39.0217 83.5275" stroke="#327BED" stroke-linecap="round" stroke-linejoin="round"/>
<path d="M40.3776 198.175C39.7396 187.109 36.0509 166.552 36.3899 164.279" stroke="#327BED" stroke-linecap="round" stroke-linejoin="round"/>
<path d="M45.2837 137.621C45.7546 146.619 47.0427 155.555 49.1319 164.319C50.7071 171.098 61.0951 192.811 59.9985 208.423" stroke="#327BED" stroke-linecap="round" stroke-linejoin="round"/>
<path d="M54.1161 84.4845C52.3837 98.6589 53.0578 113.024 56.11 126.974C59.1407 141.709 77.8233 194.207 80.0364 221.423" stroke="#327BED" stroke-linecap="round" stroke-linejoin="round"/>
<path d="M102.188 208.423C102.188 208.423 97.4229 180.11 90.4643 167.289C83.5057 154.469 65.3815 118.22 68.133 89.2891" stroke="#327BED" stroke-linecap="round" stroke-linejoin="round"/>
<path d="M108.469 166.851C107.732 154.09 102.488 142.246 98.5001 133.912C94.5124 125.577 88.5308 112.258 89.4281 96.7262" stroke="#327BED" stroke-linecap="round" stroke-linejoin="round"/>
<path d="M124.759 152.953C123.643 145.202 121.977 137.539 119.774 130.024C117.78 121.789 115.667 114.073 115.667 107.732" stroke="#327BED" stroke-linecap="round" stroke-linejoin="round"/>
<path d="M143.5 133.134C141.507 126.156 138.855 118.878 139.014 110.963" stroke="#327BED" stroke-linecap="round" stroke-linejoin="round"/>
<path d="M158.654 119.496C157.179 116.799 156.035 113.934 155.244 110.963" stroke="#327BED" stroke-linecap="round" stroke-linejoin="round"/>
<path d="M169.382 99.079V99.2385C168.545 105.798 162.583 111.361 124.759 102.927C94.8513 96.2676 53.0798 81.4931 38.1656 67.7752C36.5761 66.3758 35.1933 64.7579 34.0583 62.97C34.0583 62.8105 33.8788 62.651 33.799 62.4915C32.8485 60.955 32.4477 59.1413 32.6625 57.3473C35.0352 41.5359 86.1381 52.0835 106.695 59.4608C125.477 66.2001 163.62 83.3872 168.824 95.8689C169.289 96.8712 169.482 97.9785 169.382 99.079V99.079Z" stroke="#327BED" stroke-linecap="round" stroke-linejoin="round"/>
<path d="M64.9226 61.1559C65.78 66.5393 66.7769 72.4212 67.3551 75.8906" stroke="#327BED" stroke-linecap="round" stroke-linejoin="round"/>
<path d="M73.4769 63.6083C63.0091 66.938 59.9983 67.935 59.9983 67.935" stroke="#327BED" stroke-linecap="round" stroke-linejoin="round"/>
<path d="M86.1172 62.6318L88.1709 83.9462" stroke="#327BED" stroke-linecap="round" stroke-linejoin="round"/>
<path d="M82.3884 76.6878C82.7872 76.6878 104.7 68.2736 104.7 68.2736L108.468 85.1019" stroke="#327BED" stroke-linecap="round" stroke-linejoin="round"/>
<path d="M120.214 74.4354C120.852 74.7145 123.005 90.0473 123.005 90.0473" stroke="#327BED" stroke-linecap="round" stroke-linejoin="round"/>
<path d="M124.759 79.8981L113.772 86.8567" stroke="#327BED" stroke-linecap="round" stroke-linejoin="round"/>
<path d="M138.117 86.8571C139.055 91.2835 139.613 93.716 139.613 93.716" stroke="#327BED" stroke-linecap="round" stroke-linejoin="round"/>
<path d="M141.866 89.2891C139.114 91.4823 134.967 94.8719 134.967 94.8719" stroke="#327BED" stroke-linecap="round" stroke-linejoin="round"/>
<path d="M63.009 82.6299C63.009 82.6299 48.8924 102.708 36.5703 107.733" stroke="#327BED" stroke-linecap="round" stroke-linejoin="round"/>
<path d="M81.7715 96.7466C77.2853 105.001 61.9723 127.093 46.7791 133.653" stroke="#327BED" stroke-linecap="round" stroke-linejoin="round"/>
<path d="M108.569 98.8602C92.2812 119.12 74.9301 138.501 56.5884 156.922C47.7678 165.262 39.4267 174.096 31.6052 183.38" stroke="#327BED" stroke-linecap="round" stroke-linejoin="round"/>
<path d="M131.159 104.283C125.496 113.116 111.719 127.153 102.886 135.746C94.053 144.34 49.3105 189.202 49.3105 189.202" stroke="#327BED" stroke-linecap="round" stroke-linejoin="round"/>
<path d="M147.489 114.073C138.597 125.119 133.074 130.981 128.009 136.783C122.945 142.586 68.4722 201.524 68.4722 201.524" stroke="#327BED" stroke-linecap="round" stroke-linejoin="round"/>
<path d="M103.804 189.203C96.7456 196.341 84.1643 210.457 84.1643 210.457" stroke="#327BED" stroke-linecap="round" stroke-linejoin="round"/>
<path d="M313.039 376.646C313.029 376.767 312.993 376.884 312.935 376.99C312.876 377.097 312.797 377.19 312.7 377.264C312.524 377.419 312.297 377.504 312.062 377.503H289.252L290.269 370.505C290.306 370.323 290.397 370.156 290.528 370.026C293.155 366.913 296.051 364.037 299.182 361.433C299.9 360.834 300.956 359.977 302.312 358.9C303.668 357.824 304.765 356.906 305.542 356.288C306.32 355.67 307.157 354.893 308.055 354.055C308.8 353.357 309.468 352.582 310.048 351.742C310.456 351.139 310.74 350.462 310.886 349.748C310.951 349.429 310.948 349.099 310.88 348.78C310.811 348.461 310.678 348.159 310.487 347.894C310.119 347.406 309.589 347.067 308.992 346.937C308.5 346.807 308 346.707 307.496 346.638C307.185 346.609 306.871 346.609 306.559 346.638H305.901C305.971 346.323 305.973 345.996 305.908 345.68C305.842 345.364 305.711 345.066 305.522 344.804C305.153 344.317 304.623 343.978 304.027 343.847C303.535 343.718 303.035 343.618 302.532 343.548C302.22 343.508 301.906 343.508 301.594 343.548C299.601 343.548 297.786 343.727 296.072 343.946L296.291 338.104C296.296 337.983 296.325 337.865 296.377 337.755C296.428 337.646 296.5 337.548 296.59 337.466C296.759 337.3 296.974 337.189 297.208 337.147C301.621 336.762 305.881 336.576 309.989 336.589C310.906 336.589 311.81 336.629 312.7 336.709C313.671 336.809 314.631 336.989 315.572 337.247C315.95 337.338 316.323 337.451 316.688 337.586C317.085 338.032 317.433 338.52 317.725 339.041C318.25 340.042 318.588 341.13 318.722 342.252C318.92 343.627 318.92 345.023 318.722 346.399C318.405 348.075 317.725 349.661 316.728 351.044C315.583 352.79 314.245 354.402 312.74 355.85C311.125 357.405 309.55 358.821 307.975 360.117C306.4 361.413 304.805 362.748 303.13 364.104C301.455 365.46 300.279 366.457 299.581 367.155H313.538C313.646 367.149 313.754 367.167 313.854 367.208C313.954 367.25 314.044 367.313 314.116 367.394C314.196 367.477 314.253 367.58 314.281 367.692C314.309 367.804 314.307 367.921 314.275 368.032L313.956 370.265L313.039 376.646Z" fill="#E3F0FF"/>
<path d="M350.007 369.528C349.389 370.857 348.576 372.087 347.594 373.176C346.676 374.159 345.622 375.005 344.464 375.689C342.357 377.008 340.003 377.883 337.545 378.261C336.516 378.453 335.478 378.592 334.435 378.679C333.597 378.679 332.78 378.679 331.982 378.679C330.587 378.679 327.981 378.58 324.167 378.38L325.702 371.342C325.771 371.086 325.935 370.865 326.16 370.724C326.255 370.649 326.364 370.596 326.481 370.568C326.599 370.541 326.721 370.539 326.838 370.564C330.376 371.502 334.025 371.952 337.685 371.9C338.592 371.92 339.495 371.785 340.357 371.501C341.047 371.275 341.68 370.901 342.211 370.405C342.627 370.006 342.983 369.549 343.268 369.049C343.506 368.615 343.668 368.143 343.746 367.653C344.045 365.659 342.371 364.722 338.742 364.702C338.751 364.65 338.751 364.596 338.742 364.543C339.041 362.549 337.306 361.592 333.597 361.592C332.016 361.592 329.769 361.632 326.858 361.712L330.328 337.965C330.368 337.727 330.496 337.514 330.686 337.366C330.87 337.227 331.094 337.15 331.324 337.147H354.713L353.696 344.185C353.658 344.414 353.546 344.625 353.377 344.784C353.294 344.869 353.195 344.935 353.085 344.98C352.975 345.025 352.857 345.046 352.739 345.043H336.788L335.93 350.825H336.907C337.72 350.822 338.532 350.862 339.34 350.945C339.998 350.945 340.656 351.084 341.334 351.184C342.012 351.284 342.311 351.363 342.769 351.483C343.969 351.804 345.127 352.266 346.219 352.859C347.313 353.427 348.303 354.176 349.15 355.072L349.329 355.251C350.245 356.356 350.887 357.66 351.203 359.06C351.612 360.866 351.666 362.735 351.363 364.563C351.16 366.276 350.703 367.949 350.007 369.528Z" fill="#E3F0FF"/>
<path d="M318.722 342.251C318.722 341.932 318.722 341.633 318.563 341.334C318.39 340.532 318.101 339.76 317.706 339.041L317.406 338.523L317.167 338.204C317.018 337.978 316.852 337.765 316.669 337.566C316.41 337.261 316.13 336.974 315.831 336.708C315.096 336.07 314.277 335.534 313.399 335.113C312.505 334.686 311.57 334.352 310.607 334.116C309.666 333.867 308.706 333.694 307.736 333.598C306.829 333.501 305.917 333.455 305.005 333.458C301.017 333.458 296.65 333.638 292.244 334.017C291.999 334.056 291.775 334.175 291.606 334.356C291.521 334.435 291.452 334.531 291.404 334.637C291.356 334.743 291.33 334.857 291.327 334.974L290.968 343.866C290.964 343.979 290.985 344.091 291.03 344.195C291.075 344.298 291.142 344.39 291.227 344.465C291.32 344.542 291.429 344.597 291.547 344.625C291.665 344.652 291.787 344.652 291.905 344.624C293.181 344.345 294.557 344.106 296.052 343.926L297.607 343.767L298.903 343.667L301.595 343.528C301.9 343.499 302.207 343.499 302.512 343.528C303.016 343.596 303.516 343.696 304.008 343.827C304.458 343.925 304.872 344.145 305.204 344.465C305.318 344.556 305.419 344.664 305.503 344.784C305.69 345.05 305.82 345.352 305.885 345.671C305.951 345.99 305.949 346.319 305.882 346.638C305.757 347.354 305.478 348.034 305.064 348.632C304.484 349.471 303.815 350.247 303.071 350.945C302.173 351.782 301.336 352.54 300.558 353.178C299.781 353.816 298.704 354.713 297.348 355.79C295.992 356.866 294.916 357.784 294.198 358.322C291.065 360.933 288.17 363.815 285.544 366.936C285.411 367.062 285.326 367.231 285.305 367.414L283.949 376.646C283.92 376.754 283.917 376.869 283.941 376.979C283.966 377.089 284.016 377.191 284.089 377.277C284.161 377.363 284.254 377.431 284.358 377.474C284.462 377.516 284.575 377.533 284.687 377.523H312.043C312.3 377.528 312.549 377.435 312.741 377.264V377.264C312.839 377.192 312.92 377.099 312.978 376.992C313.037 376.885 313.072 376.767 313.08 376.646L314.017 370.245L314.356 368.012C314.376 367.947 314.376 367.878 314.356 367.813C314.359 367.731 314.344 367.65 314.313 367.574C314.282 367.499 314.236 367.43 314.176 367.374C314.106 367.296 314.02 367.234 313.924 367.193C313.827 367.151 313.723 367.132 313.618 367.135H299.661C300.359 366.457 301.655 365.42 303.21 364.084L305.682 362.09L308.055 360.097C308.853 359.439 309.63 358.761 310.428 358.103L312.821 355.87C314.327 354.431 315.665 352.825 316.808 351.084C317.316 350.323 317.75 349.515 318.104 348.672C318.412 347.958 318.627 347.207 318.742 346.439C318.864 345.653 318.931 344.86 318.942 344.066C318.913 343.457 318.839 342.85 318.722 342.251Z" stroke="#327BED" stroke-linecap="round" stroke-linejoin="round"/>
<path d="M354.99 334.356C354.924 334.278 354.842 334.216 354.749 334.175C354.655 334.133 354.554 334.114 354.452 334.117H326.538C326.304 334.121 326.079 334.205 325.9 334.356C325.805 334.422 325.725 334.508 325.667 334.608C325.608 334.708 325.572 334.819 325.561 334.934L321.733 361.074C321.714 361.179 321.719 361.287 321.747 361.39C321.774 361.494 321.824 361.59 321.892 361.672C321.962 361.757 322.051 361.824 322.151 361.869C322.251 361.914 322.361 361.935 322.47 361.931L327.036 361.792C329.947 361.792 332.181 361.672 333.756 361.672C337.484 361.672 339.199 362.649 338.92 364.623C338.92 364.676 338.92 364.729 338.92 364.782C338.837 365.217 338.682 365.635 338.461 366.019C338.184 366.525 337.828 366.983 337.404 367.374C336.875 367.872 336.242 368.247 335.55 368.471C334.691 368.764 333.787 368.906 332.878 368.89C329.218 368.936 325.568 368.48 322.032 367.534C321.914 367.509 321.792 367.51 321.675 367.538C321.558 367.565 321.448 367.619 321.354 367.693C321.125 367.835 320.955 368.055 320.875 368.312L318.722 377.264C318.676 377.357 318.652 377.459 318.652 377.563C318.652 377.667 318.676 377.769 318.722 377.862C318.853 378.034 319.046 378.148 319.26 378.181L325.581 378.52H326.638C329.07 378.64 330.785 378.7 331.822 378.7C332.858 378.7 333.457 378.7 334.274 378.7C334.693 378.7 335.151 378.7 335.67 378.54C335.945 378.52 336.218 378.48 336.487 378.421L337.384 378.281C337.661 378.242 337.935 378.182 338.202 378.101C338.54 378.059 338.874 377.986 339.199 377.882C339.767 377.742 340.326 377.569 340.874 377.364C342.075 376.933 343.225 376.371 344.303 375.689C345.18 375.169 346.002 374.561 346.756 373.874C346.995 373.655 347.234 373.416 347.454 373.177C347.673 372.937 347.892 372.678 348.092 372.419C348.777 371.52 349.365 370.551 349.846 369.528C350.565 367.971 351.055 366.319 351.302 364.623C351.61 362.802 351.549 360.937 351.122 359.14C350.811 357.733 350.169 356.42 349.248 355.312C348.369 354.327 347.314 353.516 346.138 352.919C345.044 352.334 343.887 351.879 342.688 351.563C342.17 351.424 341.612 351.324 341.053 351.224C340.495 351.124 339.897 351.065 339.299 351.025C338.322 351.025 337.604 350.885 337.125 350.885H335.889L336.746 345.123H352.697C352.808 345.152 352.925 345.152 353.036 345.123C353.14 345.082 353.235 345.021 353.316 344.943V344.943C353.493 344.791 353.607 344.577 353.635 344.345L355.01 335.014C355.06 334.911 355.084 334.797 355.08 334.683C355.077 334.568 355.046 334.456 354.99 334.356V334.356Z" stroke="#327BED" stroke-linecap="round" stroke-linejoin="round"/>
<path d="M416.582 356.109C418.715 348.134 421.068 341.773 421.068 341.773C421.068 341.773 388.329 332.98 380.194 302.893C375.287 285.021 377.118 265.968 385.338 249.357C380.675 250.208 376.063 251.313 371.521 252.667C347.136 340.079 416.582 356.109 416.582 356.109Z" fill="#327BED"/>
<path d="M430.578 765.65L436.24 768.242C443.079 771.352 454.843 776.776 464.394 781.421L464.772 781.601L469.937 784.153" stroke="#327BED" stroke-linecap="round" stroke-linejoin="round"/>
<path d="M474.663 22.8138C495.559 25.0669 508.559 34.7771 516.833 45.6436C524.144 55.5607 528.779 67.1926 530.292 79.4198" stroke="white" stroke-linecap="round" stroke-linejoin="round"/>
<path d="M522.096 7.58032C524.245 17.8124 523.556 28.4373 520.103 38.3058C519.212 40.8584 518.139 43.3438 516.892 45.743C515.279 48.7632 513.369 51.6152 511.19 54.2568C503.693 63.6479 491.81 72.1019 473.187 76.9271" stroke="white" stroke-linecap="round" stroke-linejoin="round"/>
<path d="M510.871 5.88635C507.501 21.4186 511.908 32.1057 520.043 38.207C526.642 43.1318 535.675 45.0459 545.046 44.1886" stroke="white" stroke-linecap="round" stroke-linejoin="round"/>
<path d="M509.736 90.1472C514.401 77.4662 517.711 63.25 511.191 54.3972C506.765 48.3159 497.673 44.7668 481.283 46.0429C475.786 46.4513 470.319 47.197 464.914 48.276" stroke="white" stroke-linecap="round" stroke-linejoin="round"/>
<path d="M455.043 46.0624C455.038 51.9761 456.199 57.8329 458.46 63.2976C460.721 68.7622 464.037 73.7274 468.218 77.9091C472.4 82.0908 477.365 85.4069 482.83 87.6676C488.295 89.9282 494.151 91.0892 500.065 91.0839C505.118 91.0885 510.134 90.2321 514.899 88.5517C515.272 88.4464 515.638 88.3199 515.996 88.1729C521.928 85.947 527.323 82.4942 531.828 78.0404C536.334 73.5866 539.849 68.232 542.143 62.3266C544.438 56.4212 545.46 50.0981 545.143 43.7706C544.827 37.443 543.178 31.2536 540.305 25.6069C537.432 19.9602 533.4 14.9834 528.472 11.0018C523.544 7.02028 517.831 4.12362 511.707 2.50123C505.583 0.878846 499.185 0.567261 492.933 1.58685C486.68 2.60645 480.712 4.93425 475.421 8.4181L474.763 8.83682C468.686 12.9596 463.711 18.508 460.274 24.9973C456.836 31.4865 455.04 38.7189 455.043 46.0624V46.0624Z" stroke="#FF523B" stroke-linecap="round" stroke-linejoin="round"/>
<path d="M156.96 96.7464C156.462 100.595 136.703 99.1589 114.93 92.7586C90.4649 85.5009 42.2331 68.8322 43.6089 59.5208C44.9847 50.2095 92.6581 64.027 104.701 68.3537C116.744 72.6804 157.878 89.4887 156.96 96.7464Z" stroke="#327BED" stroke-linecap="round" stroke-linejoin="round"/>
</svg>
