<svg width="1850" height="1400" viewBox="0 0 1119 949" fill="none" xmlns="http://www.w3.org/2000/svg">
<path d="M318.425 618.221C318.266 618.107 328.427 599.242 339.591 595.756L345.47 607.74C345.47 607.74 330.296 617.036 324.964 622.436L318.425 618.221Z" fill="#E3F0FF"/>
<path d="M394.067 551.419C389.055 551.692 379.235 546.52 375.202 545.244C369.575 543.467 358.616 557.958 350.14 565.362C341.664 572.767 324.349 571.286 304.823 583.589C290.971 592.293 285.753 616.58 284.113 631.003C282.893 629.786 281.78 628.468 280.786 627.061C270.83 613.14 281.242 593.888 292.725 579.967C304.208 566.046 314.187 564.018 325.465 561.74C334.331 560.157 342.676 556.435 349.776 550.895C355.54 546.475 362.603 536.085 372.126 536.974C376.671 537.454 381.035 539.017 384.852 541.53C388.67 544.043 391.829 547.434 394.067 551.419Z" fill="#E3F0FF"/>
<path d="M763.279 865.266C753.665 881.829 718.509 892.128 709.874 892.789C701.239 893.449 691.966 896.434 673.739 910.355C670.132 913.155 666.038 915.263 661.664 916.575C658.793 914.684 654.555 914.934 650.272 916.575C643.095 913.59 633.115 908.373 633.936 902.654C635.189 893.814 649.725 887.548 654.942 886.887C660.16 886.227 685.906 878.822 697.685 865.311C708.348 853.031 753.619 827.422 766.401 828.196C771.527 839.019 769.431 854.671 763.279 865.266Z" fill="#E3F0FF"/>
<path d="M743.685 722.365C733.592 751.278 718.896 788.142 711.674 805.914C688.594 805.299 679.412 809.422 678.523 815.232C675.128 837.401 667.633 844.851 654.213 844.669C651.547 844.669 642.821 849.704 640.656 850.091C642.935 840.408 649.77 821.794 655.01 815.232C665.217 802.359 682.351 728.016 682.351 728.016C682.351 728.016 723.02 716.237 743.685 722.365Z" fill="#327BED"/>
<path d="M700.601 124.792C697.873 129.595 694.559 134.042 690.735 138.029C689.826 137.259 689.095 136.299 688.595 135.217C688.096 134.134 687.838 132.956 687.842 131.764C687.842 129.564 688.716 127.455 690.271 125.899C691.826 124.344 693.936 123.47 696.135 123.47C697.721 123.461 699.275 123.921 700.601 124.792Z" fill="#E3F0FF"/>
<path d="M745.804 524.101C735.347 523.394 727.167 487.51 723.522 482.133C719.352 476.004 696.044 497.102 681.326 496.418C666.608 495.735 694.564 475.252 694.564 475.252C694.564 475.252 671.005 486.644 663.395 480.652C655.786 474.66 687.933 462.015 674.468 454.656C661.003 447.297 707.3 436.839 708.302 436.907C710.74 437.067 712.859 437.226 714.18 437.294C717.262 437.668 720.31 438.285 723.294 439.14C726.413 454.203 730.804 468.974 736.417 483.295C739.493 490.609 742.728 505.646 745.804 524.101Z" fill="#E3F0FF"/>
<path d="M661.64 524.237C661.64 524.237 678.797 528.042 674.468 536.973C670.139 545.905 651.433 541.986 650.294 541.781C651.616 542.965 678.409 566.843 667.564 573.222C656.719 579.602 640.52 556.476 640.474 559.848C640.429 563.22 643.117 588.533 634.983 592.156C630.814 569.987 623.979 534.125 623.979 534.125L617.577 534.718C613.925 539.981 610.541 545.426 607.438 551.031C606.572 547.682 607.164 545.358 594.861 546.474C582.558 547.591 569.366 540.254 585.907 529.409C602.448 518.564 676.427 497.375 692.809 505.896C709.19 514.417 661.64 524.237 661.64 524.237Z" fill="#E3F0FF"/>
<path d="M563.989 561.147C538.699 578.212 527.285 611.59 537.947 608.993C548.61 606.396 558.02 591.677 566.701 585.093C575.381 578.508 581.282 571.628 581.988 562.491C582.649 554.358 578.115 551.623 563.989 561.147Z" fill="#E3F0FF"/>
<path d="M589.097 487.1C581.031 486.234 558.02 491.656 580.462 501.203C602.904 510.749 635.143 503.208 636.988 499.198C638.834 495.188 642.684 491.998 628.832 490.084C614.979 488.17 589.097 487.1 589.097 487.1Z" fill="#E3F0FF"/>
<path d="M564.399 471.652C564.399 471.652 571.121 484.867 564.399 495.94C557.678 507.013 535.51 467.05 535.51 467.05C535.51 467.05 531.545 479.33 524.118 482.999C520.51 485.173 517.453 488.152 515.186 491.702C502.724 507.058 492.403 516.901 483.631 522.848C494.59 503.755 503.179 484.616 510.516 478.191C518.718 470.969 543.552 425.059 546.332 417.814C549.319 421.415 552.507 424.846 555.878 428.09C554.215 432.533 552.62 437.021 552.119 439.163C550.934 444.107 581.738 452.035 594.861 462.767C607.985 473.498 564.399 471.652 564.399 471.652Z" fill="#E3F0FF"/>
<path d="M739.127 71.0448C735.026 80.4089 726.482 82.4367 717.027 83.1658C697.342 84.6467 680.573 65.4855 673.966 55.8252C670.252 50.3799 669.272 52.8177 669.249 53.6835C668.611 73.6421 656.923 82.3 645.577 90.7072C646.466 85.7404 641.02 79.1103 637.717 77.6293C637.126 66.0018 638.325 54.3526 641.271 43.0891C646.192 23.4722 659.133 29.6694 661.776 28.9403C664.419 28.2112 666.538 23.8823 666.834 21.3533C667.131 18.8243 665.262 5.40462 669.113 1.59972L669.386 1.34912C669.563 1.1745 669.777 1.04177 670.012 0.960717C670.247 0.879667 670.497 0.852358 670.744 0.880774C670.991 0.90919 671.229 0.992605 671.439 1.12491C671.65 1.25722 671.828 1.43505 671.961 1.6453C673.52 4.21851 674.521 7.0905 674.9 10.0753C675.242 11.9664 675.401 13.379 675.401 13.379L675.014 13.8118L674.626 14.222C674.023 14.8431 673.565 15.5904 673.285 16.4098C673.006 17.2293 672.911 18.1006 673.009 18.961C673.305 21.2394 675.287 20.4875 678.864 16.2269C682.099 12.3993 688.73 7.95642 690.757 8.50323C692.398 11.4196 685.585 15.5206 681.439 19.2572C680.596 20.2824 679.935 22.8342 687.978 24.4063C692.277 25.4395 696.326 27.3222 699.887 29.9439C703.448 32.5655 706.448 35.8729 708.711 39.6715C709.747 41.8318 711.039 43.8591 712.561 45.7092C710.716 46.78 706.501 50.4482 710.989 53.0912C714.27 55.005 719.761 52.3393 722.381 50.0381C722.905 50.0381 723.475 50.0381 724.067 50.0381C729.666 50.4114 734.944 52.78 738.945 56.7138C738.252 59.3442 737.01 61.798 735.3 63.9135C736.491 64.6794 737.467 65.7359 738.137 66.9836C738.806 68.2313 739.147 69.6289 739.127 71.0448Z" fill="#327BED"/>
<path d="M540.749 271.679C526.828 284.916 513.409 298.222 508.852 304.761L504.295 312.644C495.82 302.027 483.083 285.121 482.787 284.415C482.526 283.947 482.32 283.45 482.172 282.934C481.511 278.377 481.215 262.178 493.564 269.811C500.978 274.458 506.839 281.208 510.401 289.2C510.401 289.2 533.185 270.107 534.096 270.107H534.324L540.749 271.679Z" fill="#E3F0FF"/>
<path d="M1014.06 216.52C1014.11 216.954 1014.04 217.392 1013.86 217.792C1013.69 218.192 1013.41 218.538 1013.06 218.798C1011.08 220.097 999.593 212.874 994.17 211.963C988.748 211.052 980.022 213.284 973.301 210.163C968.021 207.335 962.915 204.193 958.013 200.753C958.013 200.753 945.755 205.629 943.226 206.677L942.839 206.859C935.092 210.527 918.756 218.251 901.372 226.339C901.759 226.157 909.005 216.155 916.501 210.71C923.996 205.264 952.955 192.027 958.286 192.186C963.617 192.346 971.956 204.718 979.019 204.649C985.33 204.763 1005.04 204.513 1014.06 216.52Z" fill="#E3F0FF"/>
<path d="M799.482 177.696C812.628 183.756 822.494 189.087 823.747 193.302C825.843 200.502 813.996 206.79 809.575 198.406C805.155 190.022 818.689 184.235 829.785 182.594C840.88 180.954 921.809 170.746 945.982 161.906C970.156 153.066 985.717 147.735 991.983 144.477C998.248 141.219 1019.32 127.981 1022.42 127.753" stroke="#327BED" stroke-linecap="round" stroke-linejoin="round"/>
<path d="M551.663 261.449C566.951 247.209 580.279 235.316 580.279 235.316" stroke="#FF523B" stroke-linecap="round" stroke-linejoin="round"/>
<path d="M503.885 198.315C519.719 184.645 546.786 161.861 560.343 152.429C574.765 142.495 596.205 138.28 606.867 136.708" stroke="#FF523B" stroke-linecap="round" stroke-linejoin="round"/>
<path d="M789.548 214.378C783.009 231.83 776.402 246.959 777.564 267.396C763.894 262.247 738.421 252.7 737.191 252.928C737.419 281.203 735.938 332.375 732.088 352.129C727.007 378.262 739.584 387.467 738.376 393.755C737.168 400.043 730.88 400.271 732.088 405.352C733.067 409.476 741.566 424.285 740.7 434.014C728.579 430.756 711.24 427.407 697.251 428.5C673.67 430.369 622.703 449.621 598.916 440.849C575.13 432.077 548.974 413.509 552.62 407.79C556.265 402.071 573.398 386.396 571.439 377.556C569.48 368.716 586.545 363.749 582.466 353.177C578.388 342.605 588.869 313.191 580.188 295.602C571.507 278.013 574.378 268.125 574.401 267.692C574.424 267.259 613.133 272.978 601.172 264.047C589.21 255.116 586.886 254.933 589.415 253.999C591.944 253.065 622.179 241.924 608.782 238.757C600.638 236.92 592.104 238.128 584.79 242.152C584.79 242.152 591.625 205.014 555.171 248.371C546.058 259.285 529.653 244.521 528.537 240.602C527.421 236.683 514.343 229.21 516.188 221.145C518.034 213.079 514.229 206.199 514.844 202.075C515.459 197.951 539.906 177.423 565.333 159.788C589.962 142.746 611.561 146.71 611.561 146.71C628.581 172.934 663.486 173.891 673.556 156.712C673.556 156.712 688.89 155.254 695.93 144.773C702.765 142.336 771.982 169.836 790.824 184.554C792.26 193.303 792.943 205.265 789.548 214.378Z" fill="#FF523B"/>
<path d="M573.945 877.409C573.95 892.299 568.536 906.681 558.715 917.871C548.894 929.062 535.336 936.296 520.572 938.224C505.808 940.152 490.847 936.642 478.482 928.348C466.116 920.054 457.192 907.544 453.373 893.153C462.554 903.416 474.923 910.288 488.487 912.662C502.051 915.035 516.019 912.772 528.139 906.237C540.26 899.701 549.826 889.275 555.296 876.638C560.767 864.001 561.822 849.891 558.293 836.581C568.364 847.796 573.938 862.336 573.945 877.409Z" fill="#E3F0FF"/>
<path d="M492.015 667.502C483.311 675.636 463.398 686.025 448.725 684.362C443.549 684.032 438.516 682.528 434.007 679.965C435.074 673.677 438.002 667.854 442.411 663.247C446.821 658.64 452.51 655.46 458.744 654.118C464.979 652.777 471.473 653.335 477.387 655.721C483.301 658.106 488.365 662.21 491.924 667.502H492.015Z" fill="#E3F0FF"/>
<path d="M754.781 682.859C738.797 679.644 722.375 679.235 706.251 681.651C704.137 674.471 704.071 666.842 706.062 659.626C708.052 652.41 712.019 645.894 717.515 640.813C723.011 635.731 729.818 632.286 737.167 630.867C744.517 629.448 752.116 630.11 759.11 632.78C759.11 632.962 759.11 633.122 759.11 633.304C759.725 640.116 759.201 657.933 754.781 682.859Z" fill="#E3F0FF"/>
<path d="M480.669 262.269C480.675 270.018 477.627 277.456 472.184 282.971C466.742 288.486 459.344 291.633 451.596 291.729C453.725 287.318 455.626 282.801 457.292 278.195C459.275 272.294 467.955 259.307 476.545 247.278C479.251 251.81 480.676 256.991 480.669 262.269Z" fill="#E3F0FF"/>
<path d="M863.345 244.202C857.375 246.913 852.181 249.214 848.307 250.9C827.984 259.74 815.066 261.449 800.598 257.371C801.175 250.18 804.064 243.369 808.831 237.956C813.599 232.542 819.99 228.816 827.049 227.334C834.109 225.853 841.459 226.695 848.001 229.735C854.543 232.775 859.925 237.85 863.345 244.202Z" fill="#E3F0FF"/>
<path d="M993.441 151.722C1002.03 147.667 1032.74 138.302 1034.16 138.302" stroke="#327BED" stroke-linecap="round" stroke-linejoin="round"/>
<path d="M1000.09 159.172C1012.81 156.689 1047.94 157.099 1047.94 157.099" stroke="#327BED" stroke-linecap="round" stroke-linejoin="round"/>
<path d="M1000.09 170.086C1016.14 169.563 1032.13 167.896 1047.94 165.096" stroke="#327BED" stroke-linecap="round" stroke-linejoin="round"/>
<path d="M956.076 199.819C956.691 200.138 957.329 200.502 958.035 200.935C962.938 204.375 968.043 207.518 973.323 210.345C980.044 213.466 988.77 211.325 994.193 212.145C999.616 212.965 1011.1 220.187 1013.08 218.98C1013.43 218.72 1013.71 218.374 1013.88 217.974C1014.06 217.574 1014.13 217.136 1014.08 216.702C1013.51 213.499 1012.08 210.51 1009.96 208.044C1005.68 202.143 994.672 198.042 989.75 195.74C984.829 193.439 984.988 188.336 986.948 186.855C988.907 185.374 1042.34 180.954 1046.19 179.131C1050.04 177.308 1053.73 174.871 1050.95 172.296C1048.17 169.721 1021.19 170.473 1011.85 169.676" stroke="#327BED" stroke-linecap="round" stroke-linejoin="round"/>
<path d="M792.328 254.454C795.028 255.555 797.79 256.498 800.599 257.28C815.066 261.358 827.939 259.558 848.308 250.809C852.181 249.123 857.421 246.822 863.345 244.11C874.418 239.052 888.202 232.719 901.371 226.521C918.755 218.41 935.091 210.709 942.838 207.041L943.225 206.859L947.531 204.831" stroke="#327BED" stroke-linecap="round" stroke-linejoin="round"/>
<path d="M718.031 83.1201C713.474 96.7904 707.96 112.329 700.601 124.792C697.873 129.595 694.559 134.042 690.736 138.029C684.083 144.864 676.2 148.738 666.699 147.849" stroke="#327BED" stroke-linecap="round" stroke-linejoin="round"/>
<path d="M669.569 147.963C669.569 147.963 664.238 157.532 660.091 156.644C655.945 155.755 646.421 152.793 643.505 126.728C644.257 126.569 649.132 147.12 669.569 147.963Z" fill="#327BED" stroke="#327BED" stroke-linecap="round" stroke-linejoin="round"/>
<path d="M687.728 104.742C685.18 111.791 683.884 119.232 683.9 126.728C683.9 126.728 674.969 128.437 671.506 123.516" stroke="#327BED" stroke-linecap="round" stroke-linejoin="round"/>
<path d="M663.668 129.599C664.49 131.119 665.607 132.459 666.952 133.543C668.298 134.626 669.846 135.431 671.506 135.91" stroke="#327BED" stroke-linecap="round" stroke-linejoin="round"/>
<path d="M663.668 80.8647C674.377 80.5685 677.339 85.4215 678.432 89.5682" stroke="#327BED" stroke-linecap="round" stroke-linejoin="round"/>
<path d="M696.91 94.3525C702.355 89.2945 707.026 90.502 709.281 91.4362" stroke="#327BED" stroke-linecap="round" stroke-linejoin="round"/>
<path d="M671.91 106.451C672.847 104.252 672.584 102.033 671.322 101.496C670.06 100.958 668.277 102.305 667.341 104.505C666.404 106.705 666.667 108.923 667.929 109.461C669.191 109.998 670.973 108.651 671.91 106.451Z" fill="#327BED"/>
<path d="M697.553 111.51C698.49 109.311 698.226 107.092 696.965 106.555C695.703 106.017 693.92 107.364 692.983 109.564C692.047 111.764 692.31 113.983 693.572 114.52C694.834 115.057 696.616 113.71 697.553 111.51Z" fill="#327BED"/>
<path d="M645.578 90.5931C659.248 81.8213 669.911 69.5864 669.205 51.4277" stroke="#327BED" stroke-linecap="round" stroke-linejoin="round"/>
<path d="M673.967 53.5696C680.506 68.1057 703.586 90.1376 728.42 80.9102C746.943 74.075 736.076 59.2427 726.985 62.4325" stroke="#327BED" stroke-linecap="round" stroke-linejoin="round"/>
<path d="M714.567 49.3543C727.531 41.8128 748.196 47.8733 734.822 63.7992" stroke="#327BED" stroke-linecap="round" stroke-linejoin="round"/>
<path d="M646.216 77.1054C649.838 74.2346 655.079 68.6298 653.21 61.02" stroke="white" stroke-linecap="round" stroke-linejoin="round"/>
<path d="M690.872 52.0886C695.566 64.4602 701.922 67.536 709.395 65.5083" stroke="white" stroke-linecap="round" stroke-linejoin="round"/>
<path d="M679.115 40.8565C684.697 38.5781 691.555 39.8084 693.765 42.3374" stroke="white" stroke-linecap="round" stroke-linejoin="round"/>
<path d="M676.382 33.9072C679.116 31.3782 685.495 29.5782 688.184 31.2642" stroke="white" stroke-linecap="round" stroke-linejoin="round"/>
<path d="M613.384 135.91C620.639 125.132 626.553 113.51 630.996 101.302C624.685 99.2738 617.576 89.5679 621.882 81.3202C626.188 73.0724 636.555 77.3786 639.95 90.5932" stroke="#327BED" stroke-linecap="round" stroke-linejoin="round"/>
<path d="M627.328 86.8337C630.125 88.8905 632.526 91.438 634.413 94.3524" stroke="#327BED" stroke-linecap="round" stroke-linejoin="round"/>
<path d="M633.161 78.9963C633.161 78.9963 625.711 18.642 659.886 22.7659C659.886 22.7659 661.413 21.1254 661.413 14.8371C661.413 6.36153 668.089 -0.587543 671.985 1.62249C675.881 3.83252 674.491 14.0852 674.491 14.0852" stroke="#327BED" stroke-linecap="round" stroke-linejoin="round"/>
<path d="M671.506 19.6217C672.463 13.9713 683.923 3.94642 689.391 7.22729C695.771 11.055 679.617 17.9813 678.432 22.8798" stroke="#327BED" stroke-linecap="round" stroke-linejoin="round"/>
<path d="M681.189 19.2338C682.191 18.3453 699.894 20.8743 706.251 27.8461C714.544 36.9596 718.008 45.663 724.615 46.0732" stroke="#327BED" stroke-linecap="round" stroke-linejoin="round"/>
<path d="M617.736 139.647C625.118 148.647 640.702 159.788 660.114 156.644" stroke="#327BED" stroke-linecap="round" stroke-linejoin="round"/>
<path d="M609.762 143.087C619.604 165.097 658.155 181.387 675.835 153.727" stroke="#FF523B" stroke-linecap="round" stroke-linejoin="round"/>
<path d="M640.041 175.736C655.192 179.951 667.86 175.212 672.166 171.521" stroke="white" stroke-linecap="round" stroke-linejoin="round"/>
<path d="M576.862 170.131C593.198 187.47 597.846 204.626 594.405 217.749" stroke="white" stroke-linecap="round" stroke-linejoin="round"/>
<path d="M738.581 212.737C747.695 198.429 753.231 189.953 753.231 189.953" stroke="white" stroke-linecap="round" stroke-linejoin="round"/>
<path d="M742.455 217.863C745.83 215.732 749.448 214.011 753.232 212.737" stroke="white" stroke-linecap="round" stroke-linejoin="round"/>
<path d="M622.042 336.362C628.376 338.64 633.685 338.39 666.334 310.799" stroke="white" stroke-linecap="round" stroke-linejoin="round"/>
<path d="M575.586 248.895C582.944 248.206 590.245 247.003 597.435 245.295" stroke="#FF523B" stroke-linecap="round" stroke-linejoin="round"/>
<path d="M570.231 255.32C575.791 257.598 583.15 259.877 583.15 259.877" stroke="#FF523B" stroke-linecap="round" stroke-linejoin="round"/>
<path d="M601.081 361.607C619.308 369.057 632.978 370.948 646.284 367.257C661.389 363.111 711.833 337.228 711.833 337.228" stroke="white" stroke-linecap="round" stroke-linejoin="round"/>
<path d="M587.912 374.069C592.974 378.055 598.46 381.47 604.271 384.254" stroke="white" stroke-linecap="round" stroke-linejoin="round"/>
<path d="M692.809 394.438C700.789 398.173 709.432 400.287 718.236 400.658" stroke="white" stroke-linecap="round" stroke-linejoin="round"/>
<path d="M671.984 407.767C687.158 411.344 708.302 410.501 708.302 410.501" stroke="white" stroke-linecap="round" stroke-linejoin="round"/>
<path d="M540.704 271.725C526.783 284.962 513.363 298.268 508.806 304.807C508.404 305.336 508.039 305.891 507.713 306.47" stroke="#327BED" stroke-linecap="round" stroke-linejoin="round"/>
<path d="M485.657 275.461C492.87 282.402 498.268 291.008 501.378 300.523" stroke="#327BED" stroke-linecap="round" stroke-linejoin="round"/>
<path d="M377.047 423.943C377.047 423.943 378.369 443.651 383.518 457.617C384.931 461.491 394.021 469.237 396.983 471.629C399.945 474.022 401.289 470.08 402.087 464.43C402.884 458.779 398.464 455.476 394.295 441.19C389.533 424.945 403.727 411.822 409.378 410.591C415.028 409.361 413.684 426.381 410.448 432.304C407.213 438.228 407.487 448.458 410.448 450.532C413.41 452.605 417.284 446.225 420.701 439.14C424.119 432.054 443.599 399.268 443.599 399.268C443.599 399.268 447.358 394.962 458.955 379.332C469.55 365.001 492.174 335.769 499.715 320.208C500.357 318.937 500.92 317.629 501.401 316.289" stroke="#327BED" stroke-linecap="round" stroke-linejoin="round"/>
<path d="M368.8 435.882C371.831 451.215 375.818 462.106 377.025 463.518C378.233 464.931 387.87 478.146 387.87 478.146" stroke="#327BED" stroke-linecap="round" stroke-linejoin="round"/>
<path d="M363.697 448.003C365.838 459.395 367.798 466.025 368.868 467.278C369.939 468.531 378.415 477.439 378.415 477.439" stroke="#327BED" stroke-linecap="round" stroke-linejoin="round"/>
<path d="M367.341 477.44C360.506 470.969 357.727 466.754 357.499 461.126C357.271 455.499 357.499 430.391 358.661 429.001C359.823 427.611 364.767 423.374 364.767 421.027C364.767 418.68 364.767 409.065 367.341 407.197C369.916 405.329 402.998 387.033 406.279 385.849C409.56 384.664 421.749 384.299 421.749 384.299" stroke="#327BED" stroke-linecap="round" stroke-linejoin="round"/>
<path d="M495.204 223.468C491.809 228.025 484.86 237.412 477.843 247.277C468.729 259.945 459.616 273.593 457.611 279.79C455.857 284.628 453.857 289.373 451.619 294.007C445.034 308.11 435.306 326.952 429.519 339.574C421.339 357.277 407.076 385.689 406.279 385.917" stroke="#327BED" stroke-linecap="round" stroke-linejoin="round"/>
<path d="M546.331 417.769C543.552 425.014 518.717 470.923 510.515 478.146C502.313 485.368 492.493 508.539 479.552 529.705C466.611 550.872 446.196 582.336 446.196 582.336C458.294 603.366 480.372 622.846 517.008 621.593C520.289 621.479 523.365 621.228 526.236 620.909C547.903 618.334 558.953 610.474 572.419 616.512" stroke="#327BED" stroke-linecap="round" stroke-linejoin="round"/>
<path d="M756.17 602.226C749.079 597.903 741.352 594.72 733.272 592.794C715.797 588.966 704.382 595.232 694.859 599.994C684.776 604.872 674.165 608.572 663.235 611.021C660.349 611.701 657.403 612.098 654.44 612.206C649.328 612.055 644.265 611.173 639.403 609.586L638.104 609.13C638.104 608.31 636.737 601.406 634.983 592.065C630.814 569.896 623.978 534.034 623.978 534.034L617.576 534.627C613.924 539.89 610.54 545.335 607.437 550.94C596.045 570.557 579.641 600.768 576.11 607.581" stroke="#327BED" stroke-linecap="round" stroke-linejoin="round"/>
<path d="M723.362 439.14C726.481 454.203 730.871 468.974 736.485 483.295C739.493 490.609 742.728 505.646 745.804 524.101C751.431 557.57 756.558 602.34 759.109 632.78C759.109 632.962 759.109 633.121 759.109 633.304C759.679 640.139 759.109 657.933 754.735 682.858C754.348 685.137 753.915 687.415 753.459 689.694C753.003 691.972 752.206 695.253 751.181 698.807C750.155 702.361 749.016 706.143 747.649 710.199C747.216 711.543 746.761 712.933 746.282 714.346C745.439 716.897 744.528 719.54 743.594 722.252C729.787 761.85 707.299 816.326 707.299 816.326" stroke="#327BED" stroke-linecap="round" stroke-linejoin="round"/>
<path d="M663.235 611.021C663.235 611.021 674.171 637.177 677.475 647.338C678.881 652.055 679.579 656.953 679.548 661.874C679.408 673.605 678.349 685.306 676.381 696.87C676.085 698.921 675.743 700.994 675.401 703.068C674.422 708.923 673.237 714.87 671.915 720.862C659.589 776.682 634.55 836.581 628.854 861.643" stroke="#327BED" stroke-linecap="round" stroke-linejoin="round"/>
<path d="M731.29 642.531C739.242 642.212 745.279 644.126 741.155 647.088C738.737 648.783 736.12 650.175 733.363 651.234C733.363 651.234 746.874 652.829 750.383 657.591" stroke="#327BED" stroke-linecap="round" stroke-linejoin="round"/>
<path d="M722.176 657.5C725.534 660.396 729.304 662.776 733.363 664.563" stroke="#327BED" stroke-linecap="round" stroke-linejoin="round"/>
<path d="M754.803 682.859C738.819 679.644 722.397 679.235 706.273 681.651C696.474 682.945 686.847 685.314 677.565 688.714" stroke="#327BED" stroke-linecap="round" stroke-linejoin="round"/>
<path d="M751.271 698.807C749.972 703.364 748.309 708.695 746.373 714.46C721.365 712.484 696.203 714.678 671.915 720.953C673.237 714.961 674.421 709.014 675.401 703.159C699.768 694.549 726.079 693.04 751.271 698.807Z" fill="#FF523B" stroke="#FF523B" stroke-linecap="round" stroke-linejoin="round"/>
<path d="M714.271 445.246C695.337 446.955 683.011 452.696 690.12 453.539C697.228 454.382 714.909 453.539 714.271 455.658C713.633 457.777 686.93 465.022 680.209 471.607" stroke="#327BED" stroke-linecap="round" stroke-linejoin="round"/>
<path d="M692.809 485.482C699.371 479.308 712.152 469.533 716.413 469.101" stroke="#327BED" stroke-linecap="round" stroke-linejoin="round"/>
<path d="M594.861 534.65C606.572 528.043 656.377 514.646 674.467 513.78" stroke="#327BED" stroke-linecap="round" stroke-linejoin="round"/>
<path d="M609.966 535.516C621.882 533.807 658.701 532.736 658.701 532.736" stroke="#327BED" stroke-linecap="round" stroke-linejoin="round"/>
<path d="M637.102 543.216C647.97 550.051 657.607 562.583 657.607 562.583" stroke="#327BED" stroke-linecap="round" stroke-linejoin="round"/>
<path d="M583.15 494.504C597.617 496.783 624.548 495.644 624.548 495.644" stroke="#327BED" stroke-linecap="round" stroke-linejoin="round"/>
<path d="M550.523 448.003C559.637 459.007 570.163 459.508 570.163 459.508" stroke="#327BED" stroke-linecap="round" stroke-linejoin="round"/>
<path d="M541.41 451.056C543.689 458.62 548.86 472.609 555.399 478.943" stroke="#327BED" stroke-linecap="round" stroke-linejoin="round"/>
<path d="M544.828 596.873C552.529 587.987 570.14 570.193 570.14 570.193" stroke="#327BED" stroke-linecap="round" stroke-linejoin="round"/>
<path d="M346.426 584.5C363.446 605.211 377.093 621.57 388.234 634.465C391.697 638.521 394.933 642.212 397.963 645.607C405.646 654.489 413.783 662.969 422.342 671.01C425.928 674.408 429.869 677.41 434.098 679.965C438.607 682.528 443.64 684.032 448.816 684.362C463.398 686.025 483.311 675.636 492.106 667.502C492.561 667.092 492.971 666.682 493.359 666.271C494.136 665.489 494.838 664.634 495.455 663.72C503.475 651.439 512.452 642.462 532.889 619.952" stroke="#327BED" stroke-linecap="round" stroke-linejoin="round"/>
<path d="M434.03 619.929C436.924 609.677 451.255 590.31 451.255 590.31" stroke="#327BED" stroke-linecap="round" stroke-linejoin="round"/>
<path d="M446.014 597.761C445.376 597.465 443.007 596.417 439.612 594.731C433.856 591.871 428.266 588.692 422.866 585.207C411.816 578.099 400.355 568.575 397.074 558.254C396.32 555.874 395.312 553.583 394.067 551.419C391.819 547.437 388.65 544.051 384.825 541.546C380.999 539.04 376.629 537.488 372.081 537.019C362.557 536.131 355.494 546.52 349.73 550.94C342.629 556.479 334.284 560.202 325.419 561.785C314.027 564.064 304.185 565.978 292.679 580.013C281.173 594.047 270.784 613.186 280.74 627.107C281.734 628.513 282.847 629.832 284.067 631.048C288.159 635.439 293.692 638.215 299.659 638.872C305.626 639.528 311.63 638.021 316.579 634.625C326.308 627.517 339.135 620.249 351.735 610.976" stroke="#327BED" stroke-linecap="round" stroke-linejoin="round"/>
<path d="M442.641 602.933C442.641 602.933 430.361 600.791 420.359 616.603C410.357 632.415 411.245 650.596 412.931 661.943" stroke="#327BED" stroke-linecap="round" stroke-linejoin="round"/>
<path d="M439.612 594.73C439.612 594.73 425.555 594.047 410.358 609.608C399.649 620.59 398.009 636.949 397.963 645.607C394.933 642.212 391.698 638.521 388.235 634.465C389.663 623.438 393.633 612.893 399.832 603.662C405.701 595.541 413.661 589.164 422.866 585.207C428.266 588.691 433.857 591.871 439.612 594.73Z" fill="#FF523B" stroke="#FF523B" stroke-linecap="round" stroke-linejoin="round"/>
<path d="M356.633 596.872C357.089 585.913 373.858 555.178 390.627 562.15" stroke="#327BED" stroke-linecap="round" stroke-linejoin="round"/>
<path d="M350.026 605.075C341.078 609.944 332.676 615.757 324.964 622.413C321.387 620.353 317.988 617.999 314.802 615.373C314.802 615.373 324.212 594.07 339.477 591.291" stroke="#327BED" stroke-linecap="round" stroke-linejoin="round"/>
<path d="M343.419 596.44C344.911 598.641 346.28 600.923 347.52 603.275" stroke="#327BED" stroke-linecap="round" stroke-linejoin="round"/>
<path d="M332.437 599.857C334.833 602.367 336.893 605.178 338.565 608.219" stroke="#327BED" stroke-linecap="round" stroke-linejoin="round"/>
<path d="M325.168 607.832C327.339 609.778 329.246 611.999 330.842 614.439" stroke="#327BED" stroke-linecap="round" stroke-linejoin="round"/>
<path d="M212.594 543.216C217.356 571.856 240.755 636.835 279.305 670.623" stroke="#327BED" stroke-linecap="round" stroke-linejoin="round"/>
<path d="M204.209 604.026C211.865 630.182 225.148 652.898 228.975 657.318" stroke="#327BED" stroke-linecap="round" stroke-linejoin="round"/>
<path d="M760.795 715.827C777.564 713.776 810.419 715.827 810.419 715.827C826.185 704.776 846.645 704.936 842.475 713.184" stroke="#327BED" stroke-linecap="round" stroke-linejoin="round"/>
<path d="M833.817 717.558C842.931 710.13 864.393 705.733 857.33 718.173" stroke="#327BED" stroke-linecap="round" stroke-linejoin="round"/>
<path d="M858.744 715.826C858.744 715.826 885.082 708.604 880.707 721.021" stroke="#327BED" stroke-linecap="round" stroke-linejoin="round"/>
<path d="M900.688 720.953C942.838 722.366 1070.43 731.183 1118 739.18" stroke="#327BED" stroke-linecap="round" stroke-linejoin="round"/>
<path d="M828.714 837.036H851.498" stroke="#327BED" stroke-linecap="round" stroke-linejoin="round"/>
<path d="M864.712 833.71C880.228 833.437 918.733 834.827 926.752 835.374" stroke="#327BED" stroke-linecap="round" stroke-linejoin="round"/>
<path d="M864.712 897.847C883.532 897.095 926.752 897.847 926.752 897.847" stroke="#327BED" stroke-linecap="round" stroke-linejoin="round"/>
<path d="M1.27466 750.002C71.4488 741.595 173.247 738.132 226.607 738.132C279.966 738.132 390.65 732.208 390.65 732.208C390.65 732.208 376.98 726.808 379.554 720.816C382.129 714.824 413.821 730.727 413.821 730.727" stroke="#327BED" stroke-linecap="round" stroke-linejoin="round"/>
<path d="M410.95 729.292C410.95 729.292 404.115 718.993 413.912 716.783C423.709 714.573 431.638 731.069 435.215 725.099C438.792 719.13 441.002 715.416 450.161 725.099" stroke="#327BED" stroke-linecap="round" stroke-linejoin="round"/>
<path d="M457.11 728.016C480.737 725.373 565.629 718.902 609.511 720.953" stroke="#327BED" stroke-linecap="round" stroke-linejoin="round"/>
<path d="M664.078 919.218C663.563 918.11 662.72 917.187 661.663 916.575C658.792 914.684 654.554 914.934 650.271 916.575C649.386 916.908 648.525 917.304 647.696 917.76C645.049 919.161 642.648 920.985 640.588 923.159" stroke="#327BED" stroke-linecap="round" stroke-linejoin="round"/>
<path d="M657.357 923.911C662.552 919.354 680.916 910.127 685.336 915.982C689.756 921.838 683.057 927.693 683.057 927.693" stroke="#327BED" stroke-linecap="round" stroke-linejoin="round"/>
<path d="M685.631 924.367C685.631 924.367 706.137 916.734 703.585 927.693C703.585 927.693 726.574 924.002 742.477 923.136" stroke="#327BED" stroke-linecap="round" stroke-linejoin="round"/>
<path d="M770.729 926.007H788.956" stroke="#327BED" stroke-linecap="round" stroke-linejoin="round"/>
<path d="M591.307 936.169C590.829 930.542 595.864 927.671 610.582 932.934C610.582 932.934 602.335 924.937 608.555 923.957C613.362 923.205 624.503 932.455 624.503 932.455" stroke="#327BED" stroke-linecap="round" stroke-linejoin="round"/>
<path d="M435.876 945.009C445.048 943.414 454.307 942.364 463.604 941.865" stroke="#327BED" stroke-linecap="round" stroke-linejoin="round"/>
<path d="M394.637 898.963C392.358 871.235 401.472 851.117 410.791 843.507" stroke="#327BED" stroke-linecap="round" stroke-linejoin="round"/>
<path d="M351.621 888.984C348.477 875.313 357.887 861.643 361.555 861.643" stroke="#327BED" stroke-linecap="round" stroke-linejoin="round"/>
<path d="M290.332 810.721C315.645 810.448 342.051 810.721 342.051 810.721" stroke="#327BED" stroke-linecap="round" stroke-linejoin="round"/>
<path d="M336.697 799.056C346.95 798.873 357.203 799.056 357.203 799.056" stroke="#327BED" stroke-linecap="round" stroke-linejoin="round"/>
<path d="M362.899 809.127C367.843 808.944 377.321 809.127 377.321 809.127" stroke="#327BED" stroke-linecap="round" stroke-linejoin="round"/>
<path d="M338.132 938.402C342.438 934.301 353.033 934.779 364.903 941.865C364.903 941.865 349.57 928.901 364.903 928.901C380.237 928.901 390.581 942.571 389.965 941.865" stroke="#327BED" stroke-linecap="round" stroke-linejoin="round"/>
<path d="M237.77 947.902C249.088 944.905 260.645 942.9 272.311 941.91C272.311 941.91 257.41 936.032 259.574 928.924C261.739 921.815 280.513 935.417 280.513 935.417C280.513 935.417 274.475 927.807 280.513 926.85C286.55 925.893 293.705 933.116 293.454 932.364C291.176 925.529 299.924 920.266 314.164 933.868" stroke="#327BED" stroke-linecap="round" stroke-linejoin="round"/>
<path d="M104.348 878.275C117.608 878.708 125.583 876.726 126.243 872.533C126.904 868.341 155.202 871.873 158.961 871.417C162.72 870.961 164.702 866.587 173.11 870.437C181.517 874.288 224.624 872.511 224.624 872.511" stroke="#327BED" stroke-linecap="round" stroke-linejoin="round"/>
<path d="M234.376 865.676C250.53 866.564 267.549 865.904 267.549 865.904" stroke="#327BED" stroke-linecap="round" stroke-linejoin="round"/>
<path d="M33.9688 881.146C42.8544 879.984 73.7721 883.857 73.7721 883.857" stroke="#327BED" stroke-linecap="round" stroke-linejoin="round"/>
<path d="M661.663 916.575C666.037 915.264 670.131 913.155 673.738 910.355C691.965 896.434 701.261 893.449 709.873 892.789C718.485 892.128 753.664 881.83 763.278 865.266C769.43 854.671 771.526 839.019 766.468 828.242C765.041 825.049 762.808 822.281 759.987 820.212C757.167 818.143 753.857 816.843 750.383 816.44C728.123 813.182 699.598 834.553 699.598 834.553" stroke="#327BED" stroke-linecap="round" stroke-linejoin="round"/>
<path d="M647.764 917.805C641.017 917.149 634.602 914.562 629.287 910.355C622.976 904.727 619.33 893.791 624.457 879.847C629.583 865.904 647.537 851.983 659.475 852.643C671.414 853.304 671.733 849.659 677.543 843.53C683.353 837.401 681.029 835.419 695.291 827.467" stroke="#327BED" stroke-linecap="round" stroke-linejoin="round"/>
<path d="M677.543 843.416C677.543 843.416 682.487 831.773 682.647 827.353C682.806 822.933 684.925 818.035 688.115 817.192C691.305 816.349 706.729 812.999 707.846 817.192C708.651 820.77 709.199 824.402 709.486 828.059" stroke="#327BED" stroke-linecap="round" stroke-linejoin="round"/>
<path d="M625.072 904.932C624.822 904.431 632.272 886.91 644.712 882.49C657.152 878.07 669.569 882.08 690.644 861.643" stroke="#327BED" stroke-linecap="round" stroke-linejoin="round"/>
<path d="M697.753 855.97C706.229 848.588 732.111 832.252 741.042 829.359" stroke="#327BED" stroke-linecap="round" stroke-linejoin="round"/>
<path d="M752.912 834.531C756.808 839.771 763.302 851.618 763.302 851.618" stroke="#327BED" stroke-linecap="round" stroke-linejoin="round"/>
<path d="M741.042 841.707C745.758 847.221 754.713 858.431 754.713 858.431" stroke="#327BED" stroke-linecap="round" stroke-linejoin="round"/>
<path d="M729.354 847.403L743.161 863.807" stroke="#327BED" stroke-linecap="round" stroke-linejoin="round"/>
<path d="M721.722 850.069L735.529 869.982" stroke="#327BED" stroke-linecap="round" stroke-linejoin="round"/>
<path d="M715.478 859.41L728.624 875.815" stroke="#327BED" stroke-linecap="round" stroke-linejoin="round"/>
<path d="M701.74 866.337L718.304 884.587" stroke="#327BED" stroke-linecap="round" stroke-linejoin="round"/>
<path d="M684.766 878.981L695.292 889.166" stroke="#327BED" stroke-linecap="round" stroke-linejoin="round"/>
<path d="M670.161 884.062L682.419 896.389" stroke="#327BED" stroke-linecap="round" stroke-linejoin="round"/>
<path d="M661.663 889.166L672.098 900.649" stroke="#327BED" stroke-linecap="round" stroke-linejoin="round"/>
<path d="M651.501 894.908L664.42 907.758" stroke="#327BED" stroke-linecap="round" stroke-linejoin="round"/>
<path d="M640.656 901.332L655.01 915.344" stroke="#327BED" stroke-linecap="round" stroke-linejoin="round"/>
<path d="M583.15 877.409C583.127 891.346 578.975 904.964 571.218 916.543C563.461 928.122 552.447 937.142 539.566 942.465C526.686 947.788 512.517 949.175 498.849 946.451C485.181 943.726 472.627 937.012 462.772 927.157C452.917 917.303 446.203 904.748 443.478 891.08C440.754 877.412 442.141 863.243 447.464 850.363C452.787 837.482 461.807 826.468 473.386 818.711C484.965 810.954 498.583 806.802 512.52 806.779C515.016 806.782 517.51 806.911 519.993 807.167C537.295 809.036 553.298 817.227 564.932 830.169C576.566 843.111 583.013 859.893 583.036 877.295L583.15 877.409Z" stroke="#327BED" stroke-linecap="round" stroke-linejoin="round"/>
<path d="M494.681 820.291L501.699 834.531" stroke="#327BED" stroke-linecap="round" stroke-linejoin="round"/>
<path d="M556.949 822.569L534.575 839.976L510.652 834.553L503.817 818.878C503.817 818.878 513.09 812.248 520.175 807.281C533.655 808.71 546.429 814.021 556.949 822.569Z" fill="#327BED" stroke="#327BED" stroke-linecap="round" stroke-linejoin="round"/>
<path d="M507.622 843.416C506.505 843.689 499.078 858.75 499.078 858.75" stroke="#327BED" stroke-linecap="round" stroke-linejoin="round"/>
<path d="M531.59 848.611L536.625 865.334" stroke="#327BED" stroke-linecap="round" stroke-linejoin="round"/>
<path d="M452.873 839.976L469.026 864.537" stroke="#327BED" stroke-linecap="round" stroke-linejoin="round"/>
<path d="M451.733 898.963C454.253 895.744 456.938 892.656 459.776 889.713" stroke="#327BED" stroke-linecap="round" stroke-linejoin="round"/>
<path d="M564.854 861.643C569.092 857.656 578.115 851.071 578.115 851.071" stroke="#327BED" stroke-linecap="round" stroke-linejoin="round"/>
<path d="M556.948 905.023L569.411 919.218" stroke="#327BED" stroke-linecap="round" stroke-linejoin="round"/>
<path d="M530.018 930.883C530.269 930.268 541.41 910.583 541.41 910.583" stroke="#327BED" stroke-linecap="round" stroke-linejoin="round"/>
<path d="M526.988 887.001C527.147 886.5 539.018 868.455 539.018 868.455L560.731 867.293L571.485 891.262L557.541 905.798L542.959 906.641L526.988 887.001Z" fill="#327BED" stroke="#327BED" stroke-linecap="round" stroke-linejoin="round"/>
<path d="M520.722 888.984L501.698 886.911" stroke="#327BED" stroke-linecap="round" stroke-linejoin="round"/>
<path d="M495.319 866.336L505.435 887.32L484.063 906.55L458.386 891.194L467.181 861.734L495.319 866.336Z" fill="#327BED" stroke="#327BED" stroke-linecap="round" stroke-linejoin="round"/>
<path d="M484.063 906.55C483.835 907.53 490.898 924.777 490.898 924.777L484.063 931.931" stroke="#327BED" stroke-linecap="round" stroke-linejoin="round"/>
<path d="M535.578 944.097C519.004 949.758 500.922 949.084 484.815 942.206C489.144 936.419 496.64 927.693 496.64 927.693C496.64 927.693 505.275 934.528 526.988 931.885L535.578 944.097Z" fill="#327BED" stroke="#327BED" stroke-linecap="round" stroke-linejoin="round"/>
<path d="M777.564 267.395C776.403 246.89 783.01 231.83 789.549 214.377C792.944 205.264 792.26 193.302 791.007 184.553C790.463 180.611 789.703 176.701 788.729 172.843" stroke="#FF523B" stroke-linecap="round" stroke-linejoin="round"/>
<path d="M736.439 234.518C734.176 220.575 732.882 206.491 732.566 192.368" stroke="white" stroke-linecap="round" stroke-linejoin="round"/>
<path d="M563.215 266.097C563.215 266.097 562.668 269.674 567.316 282.82C571.964 295.967 574.151 321.553 571.986 329.983C569.822 338.413 569.503 345.59 572.807 349.987C576.11 354.384 576.634 359.579 571.986 361.766C567.338 363.954 561.005 361.22 563.215 369.718C565.425 378.216 560.458 377.943 558.544 380.404C557.678 381.52 553.987 387.603 549.977 393.96C545.193 401.752 540.203 409.909 540.203 409.909C542.253 412.688 544.281 415.286 546.332 417.723C549.319 421.324 552.506 424.755 555.878 427.999C578.024 449.37 597.96 451.58 612.314 453.927C629.971 456.843 629.971 449.37 642.069 448.117C654.632 446.98 666.993 444.216 678.842 439.892C688.36 436.918 698.377 435.88 708.302 436.839C710.74 436.998 712.859 437.158 714.18 437.226C717.262 437.6 720.309 438.217 723.294 439.072C725.321 439.55 727.417 440.052 729.4 440.416C733.41 441.122 736.918 441.259 738.377 439.664C739.753 438.066 740.555 436.053 740.655 433.945C741.521 424.217 733.022 409.407 732.043 405.283C730.835 400.203 737.123 399.975 738.331 393.686C739.538 387.398 726.939 378.193 732.043 352.06C735.893 332.307 737.374 281.134 737.146 252.86" stroke="#FF523B" stroke-linecap="round" stroke-linejoin="round"/>
<path d="M737.168 252.928C738.399 252.7 763.894 262.246 777.541 267.395L781.688 268.967L786.017 270.608" stroke="#FF523B" stroke-linecap="round" stroke-linejoin="round"/>
<path d="M697.799 237.207L700.419 258.669C700.441 258.72 700.453 258.774 700.453 258.829C700.453 258.884 700.441 258.938 700.419 258.988C700.381 259.028 700.335 259.06 700.284 259.079C700.232 259.099 700.177 259.107 700.122 259.102H694.723C694.606 259.102 694.494 259.062 694.404 258.988C694.354 258.95 694.312 258.902 694.281 258.847C694.249 258.792 694.229 258.732 694.221 258.669L692.239 242.447H690.622C690.558 242.448 690.496 242.437 690.437 242.413C690.378 242.39 690.325 242.355 690.28 242.311C690.189 242.227 690.133 242.114 690.12 241.992L689.528 237.207C689.505 237.157 689.494 237.103 689.494 237.048C689.494 236.993 689.505 236.938 689.528 236.888C689.569 236.846 689.619 236.814 689.674 236.794C689.73 236.775 689.789 236.768 689.847 236.774H697.32C697.437 236.77 697.551 236.811 697.639 236.888C697.729 236.971 697.786 237.085 697.799 237.207Z" fill="white"/>
<path d="M706.342 237.184C707.431 236.67 708.623 236.413 709.828 236.433C711.089 236.427 712.338 236.683 713.496 237.184C714.688 237.734 715.763 238.507 716.663 239.463C717.687 240.526 718.506 241.77 719.078 243.131C719.771 244.734 720.223 246.431 720.422 248.166C720.686 249.834 720.686 251.533 720.422 253.201C720.197 254.524 719.675 255.778 718.895 256.87C718.214 257.834 717.306 258.616 716.253 259.148C715.164 259.662 713.971 259.92 712.767 259.9C711.505 259.906 710.256 259.65 709.098 259.148C707.906 258.599 706.831 257.826 705.931 256.87C704.907 255.806 704.088 254.563 703.516 253.201C702.824 251.598 702.371 249.902 702.172 248.166C701.907 246.498 701.907 244.799 702.172 243.131C702.397 241.809 702.919 240.554 703.699 239.463C704.38 238.499 705.288 237.716 706.342 237.184ZM709.759 252.062C709.971 252.462 710.28 252.801 710.659 253.048C711.037 253.296 711.473 253.442 711.924 253.475C712.338 253.462 712.737 253.319 713.065 253.065C713.392 252.811 713.631 252.46 713.746 252.062C714.184 250.788 714.286 249.423 714.043 248.098C713.929 246.696 713.492 245.339 712.767 244.134C712.555 243.734 712.246 243.394 711.867 243.147C711.488 242.9 711.053 242.753 710.602 242.721C710.188 242.733 709.788 242.877 709.461 243.131C709.133 243.384 708.895 243.736 708.779 244.134C708.341 245.407 708.239 246.773 708.483 248.098C708.6 249.492 709.037 250.841 709.759 252.04V252.062Z" fill="white"/>
<path d="M789.321 264.046C786.564 246.343 793.604 239.622 797.568 230.463C801.533 221.304 805.93 199.819 799.482 177.673L788.705 172.797C782.782 170.154 776.516 167.375 770.319 164.458C744.983 152.611 726.87 142.859 698.527 136.571" stroke="#FF523B" stroke-linecap="round" stroke-linejoin="round"/>
<path d="M534.301 270.084C536.396 270.775 538.535 271.323 540.704 271.725V271.725C544.349 268.285 548.04 264.89 551.617 261.495C540.954 261.13 525.256 257.257 521.269 247.825C518.684 242.709 515.411 237.971 511.54 233.744C507.143 228.777 507.098 220.074 507.462 216.36C507.683 210.266 506.53 204.2 504.09 198.612L503.839 198.315C496.457 204.649 491.536 208.978 491.536 208.978C493.572 213.555 494.797 218.45 495.159 223.446C495.364 230.555 502.381 237.321 505.093 242.06C507.804 246.799 504.979 253.452 517.851 262.156C522.851 265.511 528.296 268.15 534.028 269.993H534.256" stroke="#FF523B" stroke-linecap="round" stroke-linejoin="round"/>
<path d="M652.025 122.559C657.927 122.559 662.711 117.775 662.711 111.873C662.711 105.972 657.927 101.188 652.025 101.188C646.124 101.188 641.34 105.972 641.34 111.873C641.34 117.775 646.124 122.559 652.025 122.559Z" fill="#E3F0FF"/>
<path d="M380.898 625.876C380.67 626.582 364.379 606.92 360.256 599.857C360.096 595.779 376.455 564.382 386.616 568.483C396.778 572.585 394.135 568.985 394.135 568.985L410.653 585.207C410.653 585.207 390.535 595.072 380.898 625.876Z" fill="#327BED"/>
</svg>
